<svg width="500" height="500" xmlns="http://www.w3.org/2000/svg" xml:space="preserve" version="1.1">

 <g>
  <title>Layer 1</title>
  <g id="svg_1">
   <polygon id="svg_2" fill="#DD0031" points="249.50000202655792,2.000021820637812 249.50000202655792,2.000021820637812 249.50000202655792,2.000021820637812 0.9000008849257028,84.50202410272323 38.817504050218304,390.40550402979716 249.50000202655792,499.00000047683716 249.50000202655792,499.00000047683716 249.50000202655792,499.00000047683716 460.1824755927628,390.40550402979716 498.10000723654593,84.50202410272323 " class="st0"/>
   <polygon id="svg_3" fill="#C3002F" points="249.50000202655792,2.000021820637812 249.50000202655792,57.16701924329027 249.50000202655792,56.91851427468646 249.50000202655792,308.6489944201021 249.50000202655792,308.6489944201021 249.50000202655792,499.00000047683716 249.50000202655792,499.00000047683716 460.1824755927628,390.40550402979716 498.10000723654593,84.50202410272323 249.50000202655792,2.000021820637812 " class="st1"/>
   <path id="svg_4" fill="#FFFFFF" d="m249.5,56.91852l-155.40838,324.29249l0,0l57.94436,0l0,0l31.24189,-72.562l131.9102,0l31.24189,72.562l0,0l57.94436,0l0,0l-154.87433,-324.29249l0,0l0,0l0,0l0,0zm45.3942,207.00049l-90.7884,0l45.3942,-101.6365l45.3942,101.6365z" class="st2"/>
  </g>
 </g>
</svg>