<svg width="500" height="500" xmlns="http://www.w3.org/2000/svg" preserveAspectRatio="xMinYMin meet">

 <g>
  <title>Layer 1</title>
  <path id="svg_1" fill="#5C8DBC" d="m476.56117,159.05206c-0.00321,-7.82298 -1.65864,-14.7357 -5.00636,-20.66853c-3.28843,-5.83403 -8.21305,-10.72379 -14.81875,-14.58993c-54.52664,-31.77618 -109.10617,-63.45518 -163.61518,-95.26375c-14.69535,-8.5745 -28.94359,-8.2619 -43.52997,0.43569c-21.70329,12.93625 -130.36395,75.85532 -162.7434,94.81025c-13.33479,7.80192 -19.8235,19.74208 -19.8267,35.2617c-0.02083,63.90383 0,127.80603 -0.02083,191.71148c0.00321,7.65129 1.58812,14.42958 4.78841,20.27333c3.29003,6.01057 8.28356,11.03477 15.0415,14.98837c32.38105,18.95492 141.05614,81.86914 162.75461,94.80863c14.59279,8.70245 28.84103,9.01343 43.54119,0.43569c54.51062,-31.81019 109.09335,-63.48757 163.628,-95.26375c6.75794,-3.95198 11.75147,-8.97941 15.0415,-14.98513c3.19548,-5.84375 4.7836,-12.62204 4.78681,-20.27495c0,0 0,-127.77364 -0.02083,-191.67909"/>
  <path transform="rotate(-0.265805, 272.262, 368.08)" id="svg_2" fill="#1A4674" d="m272.88535,249.57409l-199.95719,118.63462c3.27901,6.1075 8.25582,11.21272 14.99112,15.23008c32.27259,19.2606 140.58367,83.18939 162.20947,96.33755c14.54391,8.84279 28.74443,9.15878 43.39535,0.44272c54.32803,-32.32318 108.72794,-64.5114 163.07993,-96.80002c6.7353,-4.01571 11.71211,-9.12422 14.99112,-15.22678l-198.7098,-118.61816"/>
  <path id="svg_3" fill="#1A4674" d="m234.101,271.861c7.285,12.718 20.98,21.296 36.69,21.296c15.807,0 29.58,-8.687 36.828,-21.541l-36.437,-21.107l-37.081,21.352"/>
  <path id="svg_4" fill="#1B598E" d="m474.56114,153.98305c-0.00321,-7.95754 -1.66055,-14.98917 -5.01213,-21.02406l-199.36702,117.88035l199.60768,118.74366c3.19916,-5.94427 4.78912,-12.83916 4.79233,-20.62371c0,0 0,-129.97153 -0.02086,-194.97625"/>
  <path id="svg_5" fill="#FFF" d="m431.72801,255.6598l-14.08367,0l0,16.7252l-14.08656,0l0,-16.7252l-14.08222,0l0,-16.72004l14.08222,0l0,-16.72176l14.08656,0l0,16.72176l14.08367,0l0,16.72004m-51.39046,0l-14.08222,0l0,16.7252l-14.08367,0l0,-16.7252l-14.08367,0l0,-16.72004l14.08367,0l0,-16.72176l14.08367,0l0,16.72176l14.08222,0l0,16.72004"/>
  <path transform="rotate(-0.0806966, 258.211, 249.894)" id="svg_6" fill="#FFF" d="m315.04338,275.75252c-9.71326,16.04015 -28.17086,26.88041 -49.35429,26.88041c-21.05343,0 -39.40651,-10.70424 -49.16935,-26.57468a56.36853,52.48799 0 0 1 -7.46988,-26.16538c0,-29.12658 25.35927,-52.73881 56.63923,-52.73881c20.91808,0 39.17467,10.57072 48.98575,26.27893l49.50572,-26.54473c-19.67712,-31.62856 -56.41409,-52.90727 -98.49148,-52.90727c-62.81991,0 -113.74349,47.41913 -113.74349,105.91188c0,19.18977 5.48247,37.18533 15.0644,52.70761c19.62754,31.79578 56.46904,53.20551 98.6791,53.20551c42.28779,0 79.18691,-21.49584 98.78631,-53.38521l-49.43202,-26.66827"/>
 </g>
</svg>