<svg width="500" height="500" xmlns="http://www.w3.org/2000/svg" xml:space="preserve" version="1.0" enable-background="new 0 0 32 32">

 <g>
  <title>Layer 1</title>
  <path id="svg_1" fill-rule="evenodd" fill="#181616" d="m249.48839,0c-137.77182,0 -249.48039,114.57788 -249.48039,255.92047c0,113.05807 71.46728,208.98225 170.63554,242.83408c12.47792,2.33571 16.40846,-5.24735 16.40846,-12.03052c0,-6.07925 0.12478,-23.06916 0,-44.42653c-69.39283,15.47009 -83.77363,-33.70785 -83.77363,-33.70785c-11.33931,-29.56436 -27.68538,-37.43539 -27.68538,-37.43539c-22.64742,-15.87004 1.70012,-15.56608 1.70012,-15.56608c25.03383,1.80778 38.22922,26.38075 38.22922,26.38075c22.25749,39.08318 58.38106,27.78858 72.59029,21.26138c2.27722,-16.54196 8.73454,-27.82057 15.86255,-34.21978c-55.40196,-6.4632 -113.64265,-28.4125 -113.64265,-126.48042c0,-27.94856 9.71718,-50.77774 25.67332,-68.66354c-2.57357,-6.4632 -11.15214,-32.492 2.44879,-67.73565c0,0 20.94731,-6.87915 68.59736,26.25277c19.90228,-5.6793 41.25512,-8.51095 62.46758,-8.60694c21.19686,0.09599 42.53411,2.92764 62.46758,8.60694c47.65005,-33.11592 68.56616,-26.25277 68.56616,-26.25277c13.60093,35.24366 5.03796,61.27245 2.47999,67.73565c15.95614,17.8858 25.64212,40.71498 25.64212,68.66354c0,98.32388 -58.33427,119.95322 -113.9234,126.27244c8.95291,7.91902 17.07915,23.27713 17.07915,47.14619c0,31.99606 0,62.42431 0,70.83927c0,6.84716 4.02413,14.41422 16.68922,11.93453c99.07468,-33.89982 170.47957,-129.77601 170.47957,-242.80208c0,-141.34258 -111.70857,-255.92047 -249.51159,-255.92047z" clip-rule="evenodd"/>
  <g id="svg_2"/>
  <g id="svg_3"/>
  <g id="svg_4"/>
  <g id="svg_5"/>
  <g id="svg_6"/>
  <g id="svg_7"/>
 </g>
</svg>