<svg width="500" height="500" xmlns="http://www.w3.org/2000/svg" xml:space="preserve" version="1.1" enable-background="new 0 0 24 24">
 <defs>
  <linearGradient y2="0.82475" y1="-0.13153" x2="1.18326" x1="0.18326" id="SVGID_1_">
   <stop stop-color="#000000" stop-opacity="0.1" offset="0"/>
   <stop stop-color="#000000" stop-opacity="0" offset="1"/>
  </linearGradient>
  <linearGradient y2="0.83446" y1="0.10708" x2="0.95615" x1="0.24781" id="SVGID_2_">
   <stop stop-color="#000000" stop-opacity="0.1" offset="0"/>
   <stop stop-color="#000000" stop-opacity="0" offset="1"/>
  </linearGradient>
  <linearGradient y2="0.76579" y1="0.41915" x2="1.05428" x1="0.16225" id="SVGID_3_">
   <stop stop-color="#FFFFFF" stop-opacity="0.2" offset="0"/>
   <stop stop-color="#FFFFFF" stop-opacity="0" offset="1"/>
  </linearGradient>
 </defs>
 <g>
  <title>Layer 1</title>
  <g id="svg_1">
   <path id="svg_2" fill="#1A1A1A" d="m430.62295,373.93924c5.1182,-9.57982 7.47703,-23.0056 7.47703,-41.60591c0,-66.41962 -35.07205,-104.7391 -63.25098,-135.53646c-17.06058,-18.65023 -30.54902,-33.38473 -30.54902,-48.58854l0.02298,-4.76495c0.18314,-28.24007 0.56092,-87.01788 -35.22096,-118.41467c-15.14846,-13.28585 -34.86569,-20.02871 -58.60201,-20.02871c-49.25883,0 -82.07499,20.87793 -82.07499,122.75c0,28.0404 -13.52268,51.0059 -27.83538,75.32022c-6.27475,10.65879 -12.76712,21.68706 -18.20588,33.34463c-10.83179,23.23555 -36.03374,80.10522 -36.03374,106.14765c0,1.65815 0.45798,3.28643 1.3397,4.75493l82.99095,138.06388c1.78619,2.96687 5.18691,4.90468 8.99987,5.32428c0.46947,0.04992 0.93894,0.07999 1.40841,0.07999c3.33201,0 6.59531,-1.27865 8.83948,-3.46646c5.20989,-5.06446 39.74376,-11.77745 60.57158,-11.77745l79.5445,0c3.05718,0 5.98843,-1.03887 8.17537,-2.8969l96.33048,-81.83333c4.64896,-3.9458 4.74042,-10.41902 0.22911,-14.46466c-1.21377,-1.089 -2.63367,-1.8881 -4.15651,-2.40754z"/>
   <path id="svg_3" opacity="0.2" fill="#FFFFFF" d="m140.58962,208.1848c14.31271,-24.31432 27.83538,-47.27982 27.83538,-75.32022c0,-101.87207 32.81616,-122.75 82.07499,-122.75c23.73632,0 43.45355,6.74286 58.60201,20.02871c31.2762,27.44219 34.92455,75.79608 35.22518,106.3999c0.01993,-30.01565 -2.03523,-82.39144 -35.22518,-111.51449c-15.14846,-13.28585 -34.86569,-20.02871 -58.60201,-20.02871c-49.25883,0 -82.07499,20.87793 -82.07499,122.75c0,28.0404 -13.52268,51.0059 -27.83538,75.32022c-6.27475,10.65879 -12.76712,21.68706 -18.20588,33.34463c-10.83179,23.23555 -36.03374,80.10522 -36.03374,106.14765c0,0.46584 0.30485,0.87664 0.37637,1.33491c1.98668,-27.33479 25.28777,-80.12281 35.65736,-102.36798c5.43876,-11.65757 11.93112,-22.68584 18.20588,-33.34463z"/>
   <path id="svg_4" fill="#0099D8" d="m434.77946,381.46136c1.45413,1.30483 2.25425,2.88565 2.75373,4.52886c0.97763,-3.339 0.19886,-6.99511 -2.75373,-9.64344c-0.70983,-0.63687 -1.60023,-0.96788 -2.42895,-1.40733c-0.57241,1.37603 -1.06346,2.87071 -1.72756,4.11438c1.52284,0.51944 2.94274,1.31854 4.15651,2.40754z"/>
   <path id="svg_5" opacity="0.2" fill="#FFFFFF" d="m344.29999,153.32291c0,15.20381 13.48844,29.93832 30.54902,48.58854c27.91722,30.51135 62.49378,68.49245 63.13513,133.78338c0.01993,-1.16019 0.11584,-2.15897 0.11584,-3.36151c0,-66.41962 -35.07205,-104.7391 -63.25098,-135.53646c-17.01907,-18.60522 -30.46038,-33.31476 -30.52604,-48.47868c0,0.07119 0,0.16858 0,0.23977l-0.02298,4.76495z"/>
   <path id="svg_6" fill="#0099D8" d="m344.29999,148.20833c0,0.03744 0.02298,0.07242 0.02298,0.10986c0.02275,-3.50492 0.04573,-7.45338 0.00422,-11.775c-0.00141,2.34371 0.00868,4.85476 -0.00422,6.90019l-0.02298,4.76495z"/>
   <g id="svg_7">
    <path id="svg_8" fill="#FFFFFF" d="m347.33465,348.94058c-0.28046,-49.80847 -8.03819,-105.8375 -53.15317,-186.29113c-22.32651,13.16985 -63.31148,23.58723 -68.23504,23.58723c-8.87676,0 -28.25772,-5.52784 -42.49726,-16.49494c-5.85406,15.06654 -13.95791,29.01687 -21.99727,42.67854c-6.04588,10.25924 -12.29765,20.87793 -17.33565,31.70653c-14.17248,30.37776 -30.35743,70.3691 -33.62355,91.62162c9.91865,5.76639 16.83616,18.24576 24.47476,32.1871c7.91203,14.44481 16.87767,30.81741 28.43078,37.83994c21.14135,12.84149 32.10211,31.15825 34.97473,47.80192c8.04523,0.69804 18.18571,1.30626 29.70763,1.30626c28.60689,0 67.39014,-5.06855 96.08004,-20.25866c1.61008,-27.06126 7.05798,-70.46791 23.17399,-85.68441z"/>
   </g>
   <path id="svg_9" fill="#0099D8" d="m437.98414,335.69484c-0.28773,16.77583 -2.5734,29.28385 -7.36119,38.2444c0.63268,0.21604 1.13803,0.68679 1.72756,1.00021c3.83595,-9.22405 5.74947,-21.3049 5.74947,-37.49153c0,-0.61559 -0.11021,-1.1426 -0.11584,-1.75307z"/>
   <path id="svg_10" opacity="0.1" d="m198.373,453.57739c8.04523,0.69804 18.18571,1.30606 29.70763,1.30606c28.60665,0 67.3899,-5.06835 96.0798,-20.25846l0,-5.11458c-28.6899,15.19011 -67.47315,20.25846 -96.0798,20.25846c-11.52192,0 -23.43382,-0.70049 -31.47904,-1.39833"/>
   <path id="svg_11" opacity="0.3" d="m338.29327,467.53018c-2.18695,1.85803 -5.1182,2.8969 -8.17537,2.8969l-79.5445,0c-20.82782,0 -55.36169,6.71299 -60.57158,11.77745c-2.24416,2.18781 -5.50747,3.46646 -8.83948,3.46646c-0.46947,0 -0.93894,-0.03007 -1.40841,-0.07999c-3.81297,-0.4196 -7.21369,-2.35741 -8.99987,-5.32428l-82.99095,-138.06388c-0.63409,-1.05626 -0.77995,-2.24755 -0.96333,-3.42002c-0.08864,1.21748 -0.37637,2.66961 -0.37637,3.77968c0,1.65815 0.45798,3.28643 1.3397,4.75493l82.99095,138.06388c1.78619,2.96687 5.18691,4.90468 8.99987,5.32428c0.46947,0.04992 0.93894,0.07999 1.40841,0.07999c3.33201,0 6.59531,-1.27865 8.83948,-3.46646c5.20989,-5.06446 39.74376,-11.77745 60.57158,-11.77745l79.5445,0c3.05718,0 5.98843,-1.03887 8.17537,-2.8969l96.33048,-81.83333c3.15027,-2.67349 4.03199,-6.48325 2.98284,-9.93579c-0.5166,1.76187 -1.37698,3.45889 -2.98284,4.82121l-96.33048,81.83333z"/>
   <path id="svg_12" fill="#FDB515" d="m459.82101,395.22675c-4.85485,-2.77701 -9.88159,-5.65407 -13.43099,-8.75085c-2.07251,-1.8079 -1.12232,-10.16922 -0.61838,-14.66433c0.97317,-8.63096 1.98082,-17.54138 -4.67171,-23.94464c-2.50751,-2.41756 -7.11051,-5.30444 -14.72496,-5.30444c-6.27475,0 -10.85477,4.33533 -11.1296,9.79954c-0.00703,0.14873 0.06308,0.28232 0.06308,0.42962l-47.55847,0c0,-5.65407 -5.24412,-10.22917 -11.725,-10.22917c-34.77424,0 -35.175,111.39194 -35.31241,113.82935c-0.65261,6.10354 -2.18695,20.41844 8.31279,30.46778c6.33197,6.06365 15.41204,9.14037 26.99962,9.14037c30.43458,0 45.19401,-13.6856 59.46075,-26.91151c2.40456,-2.23753 4.86634,-4.51515 7.45429,-6.77273c5.94246,-5.18455 17.56452,-8.88076 27.82389,-12.14714c16.83171,-5.36438 34.23606,-10.90859 34.23606,-25.77279c0,-14.75435 -13.95767,-22.74598 -25.17897,-29.16908z"/>
   <path id="svg_13" fill="#FDB515" d="m163.39826,405.77547c-11.55311,-7.02253 -20.51875,-23.39513 -28.43078,-37.83994c-10.4655,-19.0997 -19.5111,-35.60221 -36.89247,-35.60221c-21.93865,0 -26.73628,17.20178 -29.30101,26.44199c-0.71007,2.54727 -1.78619,6.3832 -1.88937,6.83267c-1.74046,0.93904 -8.28981,2.06793 -12.61797,2.81711c-14.31294,2.4773 -38.26664,6.61295 -38.26664,25.28323c0,5.43435 0.92745,10.04934 1.94658,14.85418c1.80917,8.51108 3.51515,16.54261 -1.5688,33.73436c-0.25185,0.82918 -0.37778,1.69825 -0.37778,2.55729c0,24.59399 43.7856,27.78058 69.94923,29.67849c4.35115,0.31976 7.96925,0.55954 10.29385,0.87909c3.60661,0.49959 11.16384,3.53622 18.46898,6.47322c15.62966,6.29339 35.08354,14.11502 53.71292,14.11502c13.39675,0 24.1141,-7.55199 28.67137,-20.19851c7.08753,-19.70915 -2.30162,-50.95618 -33.69812,-70.02601z"/>
   <path id="svg_14" opacity="0.2" fill="#FFFFFF" d="m52.42021,373.53968c4.47707,-0.74918 11.25412,-1.87807 13.05461,-2.81711c0.10599,-0.44947 1.2194,-4.28541 1.95385,-6.83267c2.65337,-9.24021 7.61703,-26.44199 30.31428,-26.44199c17.98263,0 27.34153,16.50251 38.16933,35.60221c8.18546,14.44481 17.46134,30.81741 29.41404,37.83994c11.90674,6.9902 20.69181,15.63098 26.76184,24.72512c-5.78511,-10.94091 -15.04411,-21.55224 -28.6899,-29.83971c-11.55311,-7.02253 -20.51875,-23.39513 -28.43078,-37.83994c-10.4655,-19.0997 -19.5111,-35.60221 -36.89247,-35.60221c-21.93865,0 -26.73628,17.20178 -29.30101,26.44199c-0.71007,2.54727 -1.78619,6.3832 -1.88937,6.83267c-1.74046,0.93904 -8.28981,2.06793 -12.61797,2.81711c-12.43061,2.1514 -32.08921,5.58042 -37.05733,18.67027c7.76758,-8.93436 24.21869,-11.71649 35.21088,-13.55569z"/>
   <path id="svg_15" fill="#1A1A1A" d="m426.37498,322.10416c-2.24721,0 -4.22522,0.69681 -6.00859,1.65078l-78.29063,-111.76797c-8.54893,-21.0727 -19.48531,-43.42649 -34.25599,-68.46361c-2.95423,-5.00472 -10.01901,-6.99266 -15.78982,-4.41532c-5.74806,2.58716 -8.01521,8.76067 -5.04972,13.78523c52.93438,89.74498 57.31977,145.76562 57.34275,199.32902c-0.13742,2.14772 -0.97341,21.30735 11.65629,32.96513c6.04564,5.57408 14.1638,8.5209 23.49573,8.5209l4.13353,0.02005c1.31672,0.00982 2.64493,0.01984 3.99611,0.01984c11.91963,0 24.81268,-0.78908 34.90016,-9.51988c10.78606,-9.33002 15.59519,-25.33314 15.59519,-51.89502c0,-5.65407 -5.24412,-10.22917 -11.725,-10.22917z"/>
   <path id="svg_16" opacity="0.3" d="m422.5048,379.11376c-10.08749,8.7308 -22.98053,9.51988 -34.90016,9.51988c-1.35119,0 -2.6794,-0.01002 -3.99611,-0.01984l-4.13353,-0.02005c-9.33193,0 -17.45008,-2.94682 -23.49573,-8.5209c-9.45645,-8.72834 -11.36293,-21.65719 -11.66637,-28.50746c0,0.21727 0.01008,0.43965 0.01008,0.65692c-0.13742,2.14772 -0.97341,21.30735 11.65629,32.96513c6.04564,5.57408 14.1638,8.5209 23.49573,8.5209l4.13353,0.02005c1.31672,0.00982 2.64493,0.01984 3.99611,0.01984c11.91963,0 24.81268,-0.78908 34.90016,-9.51988c10.78606,-9.33002 15.59519,-25.33314 15.59519,-51.89502c0,-0.32836 -0.18033,-0.60557 -0.2148,-0.92656c-0.53091,23.87099 -5.22114,38.92014 -15.38038,47.70699z"/>
   <path id="svg_17" fill="#FFFFFF" d="m273.95,67.22402c-13.59138,0 -23.45,12.72652 -23.45,30.2681c0,17.53136 9.85861,30.25787 23.45,30.25787s23.45,-12.72652 23.45,-30.25787c0,-17.54159 -9.85861,-30.2681 -23.45,-30.2681z"/>
   <ellipse id="svg_18" ry="18.17181" rx="10.63615" cy="105.00514" cx="273.95"/>
   <path id="svg_19" fill="#FFFFFF" d="m203.6,67.22402c-13.59138,0 -23.45,12.72652 -23.45,30.2681c0,17.53136 9.85861,30.25787 23.45,30.25787s23.45,-12.72652 23.45,-30.25787c0,-17.54159 -9.85861,-30.2681 -23.45,-30.2681z"/>
   <path id="svg_20" fill="url(#SVGID_1_)" d="m292.75408,163.39844c-22.58399,12.80528 -61.97999,22.83846 -66.80764,22.83846c-8.87676,0 -28.25772,-5.52805 -42.49726,-16.49514l159.02733,138.73941c-3.77568,-39.60815 -15.68242,-84.66415 -49.72244,-145.08272z"/>
   <ellipse id="svg_21" ry="17.81078" rx="10.42483" cy="104.64412" cx="203.6"/>
   <path id="svg_22" fill="#FDB515" d="m241.07638,107.49154c-0.75556,-0.12991 -1.53433,-0.19988 -2.30138,-0.19988c-25.21344,0 -70.34999,20.62814 -70.34999,40.91667c0,19.16966 44.34653,40.91667 58.625,40.91667c6.92736,0 82.07499,-22.76583 82.07499,-40.91667c0,-26.76175 -52.0869,-37.92975 -68.04861,-40.71679z"/>
   <path id="svg_23" fill="#FDB515" d="m241.07638,107.49154c-0.75556,-0.12991 -1.53433,-0.19988 -2.30138,-0.19988c-25.21344,0 -70.34999,20.62814 -70.34999,40.91667c0,19.16966 44.34653,40.91667 58.625,40.91667c6.92736,0 82.07499,-22.76583 82.07499,-40.91667c0,-26.76175 -52.0869,-37.92975 -68.04861,-40.71679z"/>
   <path id="svg_24" opacity="0.1" d="m450.76392,445.05404c-10.25937,3.26638 -21.88143,6.96258 -27.82389,12.14714c-2.58794,2.25758 -5.04972,4.5352 -7.45429,6.77273c-14.26674,13.2259 -29.02617,26.91151 -59.46075,26.91151c-11.58758,0 -20.66766,-3.07673 -26.99962,-9.14037c-6.87437,-6.5792 -8.42019,-14.82554 -8.60193,-21.55961c-0.50652,7.06631 -0.21597,18.23451 8.60193,26.67419c6.33197,6.06365 15.41204,9.14037 26.99962,9.14037c30.43458,0 45.19401,-13.6856 59.46075,-26.91151c2.40456,-2.23753 4.86634,-4.51515 7.45429,-6.77273c5.94246,-5.18455 17.56452,-8.88076 27.82389,-12.14714c16.83171,-5.36438 34.23606,-10.90859 34.23606,-25.77279c0,-0.74161 -0.40498,-1.27742 -0.47369,-1.98548c-2.34453,12.47815 -18.20728,17.68643 -33.76237,22.64369z"/>
   <path id="svg_25" opacity="0.1" d="m197.09638,470.6869c-4.55727,12.64652 -15.27463,20.19851 -28.67137,20.19851c-18.62938,0 -38.08327,-7.82163 -53.71292,-14.11502c-7.30514,-2.937 -14.86237,-5.97363 -18.46898,-6.47322c-2.3246,-0.31956 -5.9427,-0.55933 -10.29385,-0.87909c-25.33796,-1.83798 -66.84328,-5.06446 -69.46124,-27.59318c-0.05136,0.17737 -0.05722,0.29337 -0.11021,0.47197c-0.25185,0.82918 -0.37778,1.69825 -0.37778,2.55729c0,24.59399 43.7856,27.78058 69.94923,29.67849c4.35115,0.31976 7.96925,0.55954 10.29385,0.87909c3.60661,0.49959 11.16384,3.53622 18.46898,6.47322c15.62966,6.29339 35.08354,14.11502 53.71292,14.11502c13.39675,0 24.1141,-7.55199 28.67137,-20.19851c1.85349,-5.15468 2.50892,-11.11706 2.00943,-17.42539c-0.12733,4.38033 -0.67278,8.59209 -2.00943,12.3108z"/>
   <path id="svg_26" opacity="0.1" d="m226.79369,184.01041c-13.14325,0 -50.91604,-18.0285 -58.33726,-35.92442c0,0.04112 -0.03142,0.08122 -0.03142,0.12234c0,19.16966 44.34653,40.91667 58.625,40.91667c6.92736,0 82.07499,-22.76583 82.07499,-40.91667c0,-0.39587 -0.24622,-0.7142 -0.26897,-1.10393c-11.1282,17.49781 -75.59576,36.90601 -82.06233,36.90601z"/>
   <path id="svg_27" fill="url(#SVGID_2_)" d="m459.82101,395.22675c-4.85485,-2.77701 -9.88159,-5.65407 -13.43099,-8.75085c-2.07251,-1.8079 -1.12232,-10.16922 -0.61838,-14.66433c0.97317,-8.63096 1.98082,-17.54138 -4.67171,-23.94464c-0.8503,-0.82038 -2.20711,-1.58961 -3.67555,-2.31138c-1.47407,18.62527 -6.11435,31.05595 -14.91959,38.6728c-10.08749,8.7308 -22.98053,9.51988 -34.90016,9.51988c-1.35119,0 -2.6794,-0.01002 -3.99611,-0.01984l-4.13353,-0.02005c-9.33193,0 -17.45008,-2.94682 -23.49573,-8.5209l80.21705,69.98325c4.68179,-1.82795 9.75989,-3.47137 14.56761,-5.00206c16.83171,-5.36438 34.23606,-10.90859 34.23606,-25.77279c0,-14.75435 -13.95767,-22.74598 -25.17897,-29.16908z"/>
   <path id="svg_28" fill="url(#SVGID_3_)" d="m459.82101,395.22675c-4.85485,-2.77701 -9.88159,-5.65407 -13.43099,-8.75085c-2.07251,-1.8079 -1.12232,-10.16922 -0.61838,-14.66433c0.97317,-8.63096 1.98082,-17.54138 -4.67171,-23.94464c-0.80152,-0.77169 -2.22142,-1.51596 -3.47951,-2.27394c0.31493,-4.10312 0.47955,-8.50228 0.47955,-13.25966c0,-66.41962 -35.07205,-104.7391 -63.25098,-135.53646c-17.06058,-18.65023 -30.54902,-33.38473 -30.54902,-48.58854l0.02298,-4.76495c0.18314,-28.24007 0.56092,-87.01788 -35.22096,-118.41467c-15.14846,-13.28585 -34.86569,-20.02871 -58.60201,-20.02871c-49.25883,0 -82.07499,20.87793 -82.07499,122.75c0,28.0404 -13.52268,51.0059 -27.83538,75.32022c-6.27475,10.65879 -12.76712,21.68706 -18.20588,33.34463c-9.81992,21.06533 -31.25463,69.54258 -35.20923,97.86387c-12.67402,4.65263 -16.33949,17.0733 -18.40051,24.4966c-0.71007,2.54727 -1.78619,6.3832 -1.88937,6.83267c-1.74046,0.93904 -8.28981,2.06793 -12.61797,2.81711c-14.31294,2.4773 -38.26664,6.61295 -38.26664,25.28323c0,5.43435 0.92745,10.04934 1.94658,14.85418c1.80917,8.51108 3.51515,16.54261 -1.5688,33.73436c-0.25185,0.82918 -0.37778,1.69825 -0.37778,2.55729c0,24.59399 43.7856,27.78058 69.94923,29.67849c4.35115,0.31976 7.96925,0.55954 10.29385,0.87909c3.60661,0.49959 11.16384,3.53622 18.46898,6.47322c15.62966,6.29339 35.08354,14.11502 53.71292,14.11502c8.01802,0 14.86097,-2.97566 20.21249,-7.85927c0.4092,-0.3034 0.93026,-0.46931 1.29092,-0.82161c5.20989,-5.06446 39.74376,-11.77745 60.57158,-11.77745l71.77271,0c1.29233,3.94334 3.15449,7.87421 6.75266,11.31796c6.33197,6.06365 15.41204,9.14037 26.99962,9.14037c30.43458,0 45.19401,-13.6856 59.46075,-26.91151c2.40456,-2.23753 4.86634,-4.51515 7.45429,-6.77273c5.94246,-5.18455 17.56452,-8.88076 27.82389,-12.14714c16.83171,-5.36438 34.23606,-10.90859 34.23606,-25.77279c0,-14.75435 -13.95767,-22.74598 -25.17897,-29.16908z"/>
  </g>
  <g id="svg_29"/>
  <g id="svg_30"/>
  <g id="svg_31"/>
  <g id="svg_32"/>
  <g id="svg_33"/>
  <g id="svg_34"/>
  <g id="svg_35"/>
  <g id="svg_36"/>
  <g id="svg_37"/>
  <g id="svg_38"/>
  <g id="svg_39"/>
  <g id="svg_40"/>
  <g id="svg_41"/>
  <g id="svg_42"/>
  <g id="svg_43"/>
 </g>
</svg>