<svg width="500" height="500" xmlns="http://www.w3.org/2000/svg">
 <defs>
  <linearGradient y2="-0.02152" y1="0.63313" x2="0.9995" x1="0.0547" id="a">
   <stop stop-color="#f89822" offset="0.233"/>
   <stop stop-color="#c27818" offset="1"/>
  </linearGradient>
 </defs>
 <g>
  <title>Layer 1</title>
  <path id="svg_1" fill="#4d4d4e" d="m480.08658,500.29998l-460.17315,0c-10.60564,0 -19.31343,-8.72545 -19.31343,-19.35261l0,-460.99476c0,-10.62715 8.70779,-19.35261 19.31343,-19.35261l460.17315,0c10.60564,0 19.31343,8.72545 19.31343,19.35261l0,461.10663c-0.11164,10.62715 -8.70779,19.24074 -19.31343,19.24074z"/>
  <path id="svg_2" fill="#f89820" d="m110.6,130.30994l267.84319,-88.55584s19.0171,-10.38323 14.43466,8.83171l0.68736,85.33346s3.32226,12.53149 -13.17449,15.63452l-108.83277,35.44621l-160.95794,-56.69006z"/>
  <path id="svg_3" fill="#f89820" d="m112.92128,128.5s-10.93498,2.8319 -7.7258,23.04139l-0.59429,88.69005s-0.95087,11.19889 18.66079,15.70419l275.39521,96.02725s9.27097,3.99041 8.20124,-8.36699l0.11886,-98.85916s2.61489,-10.16911 -14.50074,-16.86269l-112.55903,-38.23069l-166.99623,-61.14336z"/>
  <path id="svg_4" fill="url(#a)" d="m238.15191,293.5l-114.35577,39.01001s-13.80156,0.51841 -12.17785,29.41951s-0.11598,87.09212 -0.11598,87.09212s1.15979,10.75691 14.38146,4.53605l271.16003,-96.68262s9.6263,-2.72163 1.50773,-5.70246c-8.11856,-2.85123 -160.39962,-57.67261 -160.39962,-57.67261z"/>
 </g>
</svg>