<?xml version="1.0" encoding="utf-8"?>
<svg viewBox="0 0 500 500" xmlns="http://www.w3.org/2000/svg">
  <g id="layer1" transform="matrix(0.492097, 0, 0, 0.490414, 630.918692, 2075.809785)" style="">
    <rect style="fill:#0000ff;fill-rule:evenodd;stroke-width:0.264583" id="rect1622" height="2515.365" x="-2972.7036" y="-4090.6433"/>
    <rect style="fill:#fdffff;fill-opacity:1;fill-rule:evenodd;stroke-width:0.264583" id="rect1770" width="1000" height="1000" x="-1270.6506" y="-4221.0288"/>
    <g transform="matrix(0.02555647,0,0,-0.02550244,-1406.7449,-3093.9326)" fill="#000000" stroke="none" id="g6783" style="stroke-width:1.38184">
      <path d="m 24470,40744 c -36,-2 -159,-8 -275,-14 -200,-10 -539,-34 -635,-45 -83,-9 -134,-15 -240,-25 -293,-30 -747,-95 -1079,-156 -2811,-513 -5377,-1755 -7528,-3641 l -154,-136 34,-36 c 19,-20 191,-211 383,-426 1076,-1202 1375,-1535 1384,-1540 6,-3 75,51 155,121 1598,1399 3541,2394 5600,2869 712,164 1552,281 2235,311 80,3 163,8 185,10 52,4 909,4 955,-1 19,-2 102,-6 183,-9 814,-34 1786,-184 2632,-407 3897,-1028 7110,-3836 8672,-7578 577,-1383 901,-2838 977,-4386 19,-375 14,-1055 -9,-1380 -64,-900 -168,-1574 -365,-2365 -482,-1934 -1417,-3746 -2719,-5270 -393,-460 -901,-973 -1351,-1366 -571,-499 -1224,-973 -1890,-1372 -99,-59 -86,-65 -155,68 -144,278 -864,1615 -871,1617 -5,1 -191,-278 -414,-620 -222,-342 -450,-692 -506,-777 -55,-85 -131,-202 -169,-260 -38,-58 -211,-323 -385,-590 -174,-267 -351,-537 -392,-600 -458,-703 -1002,-1536 -1085,-1663 -56,-87 -103,-161 -103,-165 0,-4 1436,-352 3190,-773 1755,-421 3190,-763 3190,-761 0,3 -41,82 -92,176 -50,94 -139,261 -198,371 -257,482 -505,944 -530,990 -170,313 -292,549 -283,552 22,8 508,306 688,423 1315,853 2511,1915 3530,3135 1432,1715 2487,3734 3079,5890 177,645 322,1351 406,1975 11,85 22,169 25,185 45,316 98,961 113,1365 14,387 6,1299 -13,1500 -1,19 -6,89 -9,155 -6,107 -11,170 -32,415 -13,154 -57,531 -85,730 -350,2496 -1283,4842 -2742,6900 -867,1223 -1942,2351 -3122,3277 -1943,1525 -4182,2555 -6600,3038 -304,60 -753,133 -1055,171 -25,3 -56,7 -70,9 -33,5 -378,42 -460,49 -36,4 -87,8 -115,11 -95,9 -171,14 -330,24 -88,6 -196,13 -240,16 -94,6 -1220,14 -1315,9 z" id="path6769" style="stroke-width:1.38184"/>
      <path d="m 23930,30848 c 0,-2569 -1,-4672 -2,-4672 -2,-1 -43,-21 -93,-45 -440,-213 -755,-615 -861,-1101 -15,-68 -19,-128 -19,-295 0,-183 3,-223 23,-314 139,-622 614,-1081 1263,-1223 90,-19 133,-22 324,-22 191,0 234,3 325,22 387,84 721,284 950,568 l 59,74 3158,3 3158,2 3,884 c 2,705 0,886 -10,893 -7,4 -1430,8 -3163,8 l -3150,1 -55,70 c -102,130 -258,266 -418,362 -73,44 -250,129 -292,140 -20,5 -20,41 -20,4661 v 4656 h -590 -590 z" id="path6771" style="stroke-width:1.38184"/>
      <path d="m 12177,34028 c -1128,-1619 -1945,-3448 -2397,-5365 -28,-119 -47,-219 -43,-223 4,-4 548,-152 1208,-330 660,-177 1240,-333 1288,-347 48,-14 94,-23 100,-20 7,3 25,63 41,133 253,1170 730,2428 1321,3485 215,384 575,958 732,1165 l 23,31 -1007,714 c -554,393 -1051,744 -1104,782 l -97,67 z" id="path6773" style="stroke-width:1.38184"/>
      <path d="m 9365,25296 c -4,-172 -4,-385 -1,-472 3,-88 8,-247 11,-354 3,-107 7,-215 10,-240 2,-25 7,-94 10,-155 51,-958 235,-2080 511,-3112 l 46,-171 72,33 c 39,18 325,155 636,305 311,150 610,294 665,320 55,26 168,80 250,120 83,40 195,94 250,120 55,26 177,85 270,130 94,45 207,100 253,121 47,22 82,44 82,53 0,8 -15,79 -34,158 -101,420 -221,1142 -260,1563 -31,329 -42,478 -56,755 -6,113 -10,393 -10,623 v 417 l -28,1 c -15,0 -47,2 -72,4 -25,2 -184,9 -355,15 -170,5 -357,12 -415,15 -97,4 -183,7 -550,20 -74,3 -189,7 -255,10 -299,13 -894,35 -955,35 h -67 z" id="path6775" style="stroke-width:1.38184"/>
      <path d="m 11873,19407 c -618,-430 -1123,-786 -1123,-791 0,-16 156,-345 290,-611 540,-1068 1176,-2038 1950,-2972 64,-77 77,-89 90,-78 17,14 1224,1067 1675,1461 165,144 311,271 325,282 l 24,20 -60,73 c -659,799 -1219,1667 -1669,2591 -108,224 -271,583 -331,735 -16,40 -33,73 -39,72 -5,0 -515,-352 -1132,-782 z" id="path6777" style="stroke-width:1.38184"/>
      <path d="m 17004,14442 c -105,-147 -459,-639 -787,-1094 l -596,-827 162,-119 c 984,-721 2011,-1308 3108,-1775 287,-123 487,-202 493,-196 7,7 1006,2487 1006,2497 0,6 -75,40 -167,77 -986,394 -1971,940 -2830,1572 -100,73 -185,133 -190,132 -4,0 -94,-120 -199,-267 z" id="path6779" style="stroke-width:1.38184"/>
      <path d="m 22675,11693 c -59,-318 -114,-609 -121,-648 -18,-100 -209,-1115 -239,-1270 -26,-134 -29,-165 -19,-165 3,0 85,-13 182,-30 165,-27 543,-81 657,-94 28,-3 109,-12 180,-20 72,-8 207,-22 300,-30 149,-14 236,-20 560,-41 350,-22 1177,-26 1550,-6 322,17 649,41 656,49 3,4 -183,601 -415,1327 l -422,1320 -529,1 c -292,1 -559,4 -595,7 -36,3 -112,9 -170,12 -407,23 -875,74 -1312,145 -70,11 -134,20 -141,20 -10,0 -43,-156 -122,-577 z" id="path6781" style="stroke-width:1.38184"/>
    </g>
  </g>
</svg>