<?xml version="1.0" standalone="no"?>
<!DOCTYPE svg PUBLIC "-//W3C//DTD SVG 20010904//EN"
 "http://www.w3.org/TR/2001/REC-SVG-20010904/DTD/svg10.dtd">
<svg version="1.0" xmlns="http://www.w3.org/2000/svg"
 width="319.000000pt" height="319.000000pt" viewBox="0 0 319.000000 319.000000"
 preserveAspectRatio="xMidYMid meet">

<g transform="translate(0.000000,319.000000) scale(0.100000,-0.100000)"
fill="#000000" stroke="none">
<path d="M1676 2543 c-167 -35 -290 -107 -451 -263 -172 -168 -224 -190 -444
-190 -137 0 -186 -10 -186 -38 0 -7 77 -52 170 -101 433 -223 818 -422 824
-428 5 -4 -15 -143 -22 -149 -2 -2 -73 22 -158 55 -498 190 -816 247 -893 162
-15 -17 -17 -55 -19 -353 l-1 -333 25 -55 c36 -78 71 -114 141 -149 111 -56
231 -40 423 56 125 62 244 108 253 97 5 -5 26 -49 46 -99 50 -118 95 -165 159
-165 40 0 277 58 302 74 20 13 197 254 225 306 10 18 15 17 123 -22 182 -66
217 -74 268 -59 30 9 60 29 92 63 l49 50 68 -36 c37 -20 71 -36 74 -36 23 0
114 242 148 391 32 144 32 365 -1 484 -74 273 -257 479 -561 630 -226 113
-456 151 -654 108z m439 -113 c44 -11 118 -38 165 -61 90 -43 184 -99 177
-106 -3 -2 -38 10 -79 26 -174 69 -391 109 -523 96 -181 -17 -363 -91 -513
-210 -45 -36 -82 -61 -82 -55 0 19 145 162 204 202 96 66 215 113 331 132 62
10 242 -3 320 -24z m-1308 -869 c121 -23 274 -68 452 -131 120 -42 292 -108
298 -114 1 -1 -7 -51 -17 -111 -11 -59 -20 -111 -20 -115 0 -3 -15 -12 -34
-18 -31 -12 -45 -9 -143 24 -219 75 -520 217 -688 326 -93 60 -110 81 -106
126 3 35 114 41 258 13z m46 -309 c129 -67 330 -154 454 -197 l81 -29 -24 -29
c-13 -16 -24 -35 -24 -43 0 -21 -27 -17 -146 22 -200 66 -431 183 -595 300
l-49 36 0 58 0 59 94 -59 c51 -33 145 -86 209 -118z m-68 -151 c123 -68 278
-136 403 -177 l84 -27 -68 -28 c-38 -16 -77 -29 -87 -29 -67 0 -536 232 -567
281 -4 6 -5 113 -1 126 1 1 29 -17 64 -41 34 -24 111 -71 172 -105z m-181 -80
c60 -42 279 -152 370 -186 42 -17 76 -33 76 -36 0 -4 -30 -19 -66 -33 l-65
-26 -82 35 c-142 62 -287 147 -288 170 0 11 -3 33 -5 49 -5 29 0 56 11 56 4 0
26 -13 49 -29z m210 -303 c-6 -10 -73 2 -120 22 -37 16 -114 83 -114 100 0 4
54 -20 119 -54 66 -33 117 -64 115 -68z"/>
</g>
</svg>
