<?xml version="1.0" encoding="utf-8"?>
<svg viewBox="0 0 500 500" xmlns="http://www.w3.org/2000/svg">
  <g id="layer1" transform="matrix(0.500505, 0, 0, 0.500505, 583.721549, 2089.195771)" style="">
    <rect style="fill:#0000ff;fill-rule:evenodd;stroke-width:0.264583" id="rect1622" height="2515.365" x="-2972.7036" y="-4090.6433"/>
    <rect style="fill:#ffffff;fill-opacity:1;fill-rule:evenodd;stroke-width:0.264583" id="rect1770" width="1000" height="1000" x="-1158.3633" y="-4176.1143"/>
    <path d="m -664.36981,-3990.6917 c -48.04698,11.288 -83.43487,34.5091 -129.75559,84.8214 -49.48551,54.1831 -64.44619,61.2784 -127.74159,61.2784 -39.41579,0 -53.51339,3.2254 -53.51339,12.256 0,2.2573 22.1534,16.7705 48.91005,32.5737 124.57686,71.9217 235.34385,136.1027 237.07002,138.0372 1.43856,1.29 -4.31553,46.1198 -6.32952,48.055 -0.57578,0.6492 -21.00257,-7.0951 -45.45761,-17.7386 -143.27772,-61.2773 -234.76832,-79.6614 -256.92171,-52.2476 -4.31565,5.4835 -4.89095,17.7387 -5.46645,113.8489 l -0.2879,107.398 7.19265,17.7386 c 10.35742,25.1557 20.4272,36.7663 40.56662,48.055 31.93537,18.0605 66.46018,12.9007 121.69977,-18.0612 35.96328,-19.9959 70.20037,-34.8318 72.78972,-31.2837 1.43855,1.6117 7.48036,15.8032 13.23452,31.9291 14.38532,38.0563 27.33209,53.2149 45.74525,53.2149 11.50824,0 79.69471,-18.7058 86.88732,-23.8665 5.75416,-4.1928 56.67813,-81.9189 64.73394,-98.6902 2.87708,-5.8053 4.31562,-5.4827 35.3879,7.0953 52.36251,21.2867 62.43229,23.8666 77.10527,19.0285 8.63125,-2.9026 17.2624,-9.3525 26.46902,-20.3185 l 14.09759,-16.126 19.56404,11.6106 c 10.64516,6.4509 20.42714,11.6107 21.29022,11.6107 6.61725,0 32.79855,-78.0488 42.58054,-126.104 9.2066,-46.4424 9.2066,-117.7187 -0.28789,-156.0977 -21.2903,-88.0467 -73.94054,-154.4858 -161.40331,-203.1854 -65.02157,-36.4446 -131.19404,-48.7006 -188.15989,-34.8319 z m 126.30303,36.4446 c 12.65915,3.5471 33.94939,12.255 47.47161,19.673 25.89357,13.8687 52.93796,31.9292 50.92396,34.1872 -0.86308,0.6401 -10.93279,-3.2252 -22.72875,-8.386 -50.06087,-22.253 -112.49317,-35.1536 -150.47044,-30.961 -52.07486,5.4825 -104.43737,29.3492 -147.59335,67.7281 -12.94678,11.6107 -23.59194,19.6741 -23.59194,17.7386 0,-6.1279 41.71745,-52.2475 58.69212,-65.1482 27.61983,-21.2867 61.85685,-36.4444 95.23085,-42.5725 17.83778,-3.2254 69.6249,0.9672 92.06594,7.7408 z m -376.31986,280.267 c 34.81246,7.4181 78.83153,21.9313 130.0433,42.2499 34.52474,13.5451 84.01024,34.8318 85.73643,36.7662 0.28789,0.3199 -2.01389,16.4487 -4.89098,35.8 -3.16473,19.0276 -5.7541,35.7991 -5.7541,37.089 0,0.9672 -4.31561,3.8699 -9.78206,5.8053 -8.91888,3.8698 -12.94678,2.9026 -41.14197,-7.7407 -63.00767,-24.1885 -149.60726,-69.9855 -197.94196,-105.1399 -26.75666,-19.3513 -31.64774,-26.124 -30.49691,-40.6371 0.86317,-11.2879 32.79855,-13.2234 74.22825,-4.1927 z m 13.23451,99.6574 c 37.1141,21.6086 94.94312,49.6678 130.61867,63.5355 l 23.30422,9.3535 -6.90498,9.3524 c -3.74017,5.1608 -6.9049,11.2889 -6.9049,13.8688 0,6.7726 -7.76807,5.4825 -42.00515,-7.0953 -57.54122,-21.2868 -124.00142,-59.0211 -171.1853,-96.7557 l -14.09761,-11.6105 v -18.7059 -19.0287 l 27.0444,19.0287 c 14.67306,10.6433 41.71744,27.7365 60.13065,38.0572 z m -19.56403,48.6996 c 35.3879,21.9313 79.98235,43.8625 115.94561,57.0857 l 24.16738,8.708 -19.56403,9.0307 c -10.93287,5.1597 -22.15339,9.3525 -25.03047,9.3525 -19.27633,0 -154.2106,-74.8235 -163.12951,-90.6267 -1.1508,-1.9354 -1.43854,-36.4446 -0.28788,-40.6371 0.28788,-0.3199 8.34352,5.4826 18.41323,13.2232 9.78197,7.7399 31.93537,22.8986 49.48551,33.8637 z m -52.07485,25.8021 c 17.26238,13.545 80.27006,49.0223 106.45134,59.9875 12.0837,5.4835 21.86567,10.6433 21.86567,11.6106 0,1.2899 -8.63115,6.128 -18.98859,10.6433 l -18.70095,8.3852 -23.59193,-11.2878 c -40.85425,-19.9959 -82.57171,-47.4098 -82.85942,-54.8277 0,-3.548 -0.86309,-10.6433 -1.43846,-15.8032 -1.43855,-9.3534 0,-18.0614 3.16472,-18.0614 1.15081,0 7.48036,4.1926 14.09762,9.3535 z m 60.41836,97.7219 c -1.72626,3.2253 -21.00257,-0.6491 -34.52481,-7.0953 -10.64514,-5.1599 -32.79847,-26.7683 -32.79847,-32.2518 0,-1.29 15.53615,6.4507 34.23701,17.4159 18.98859,10.6433 33.66164,20.6413 33.08627,21.9312 z" id="path6542" style="fill:#000000;stroke:none;stroke-width:0.0352778"/>
  </g>
</svg>