<?xml version="1.0" standalone="no"?>
<!DOCTYPE svg PUBLIC "-//W3C//DTD SVG 20010904//EN"
 "http://www.w3.org/TR/2001/REC-SVG-20010904/DTD/svg10.dtd">
<svg version="1.0" xmlns="http://www.w3.org/2000/svg"
 width="5000.000000pt" height="5000.000000pt" viewBox="0 0 5000.000000 5000.000000"
 preserveAspectRatio="xMidYMid meet">

<g transform="translate(0.000000,5000.000000) scale(0.100000,-0.100000)"
fill="#000000" stroke="none">
<path d="M22025 42063 c-365 -22 -612 -49 -900 -98 -1824 -310 -3459 -1259
-4675 -2715 -632 -757 -1141 -1677 -1452 -2625 -210 -640 -323 -1218 -389
-1995 -9 -96 -13 -844 -16 -2611 l-4 -2476 -72 -13 c-180 -32 -473 -127 -676
-220 -236 -109 -468 -250 -671 -410 -133 -105 -403 -374 -509 -508 -343 -435
-558 -930 -642 -1482 l-24 -155 0 -7395 0 -7395 23 -145 c105 -659 387 -1233
831 -1693 533 -551 1189 -878 1956 -974 133 -17 622 -18 9350 -18 8728 0 9217
1 9350 18 487 61 947 222 1345 472 274 172 606 469 799 713 348 442 569 956
648 1512 17 119 18 475 18 7520 0 7085 -1 7400 -18 7515 -56 370 -147 659
-309 978 -206 405 -487 748 -853 1042 -103 83 -343 241 -475 312 -273 147
-635 274 -937 329 l-93 17 0 2336 c0 2317 -3 2561 -35 2921 -217 2430 -1528
4640 -3542 5973 -1147 759 -2428 1186 -3798 1267 -151 9 -4090 12 -4230 3z
m4040 -2633 c1151 -61 2210 -487 3085 -1243 160 -138 439 -417 572 -572 696
-814 1143 -1849 1262 -2920 34 -302 36 -472 36 -2782 l0 -2313 -6910 0 -6910
0 0 2303 c0 2214 3 2478 31 2742 112 1085 537 2091 1239 2935 132 159 499 526
655 656 889 738 1958 1153 3080 1197 211 9 3695 5 3860 -3z m-1369 -14505
c620 -65 1200 -301 1684 -685 135 -106 403 -375 510 -510 664 -837 853 -1939
505 -2938 -276 -793 -882 -1461 -1647 -1817 l-108 -50 0 -1790 c0 -1243 -3
-1817 -11 -1880 -44 -361 -265 -667 -594 -826 -140 -68 -253 -98 -415 -110
-160 -13 -435 -4 -536 17 -221 45 -404 143 -561 300 -138 137 -226 292 -282
493 l-26 96 -3 1823 c-2 1716 -3 1823 -20 1829 -67 24 -306 135 -397 185 -273
149 -498 319 -735 557 -293 295 -500 597 -656 956 -185 428 -263 839 -251
1315 12 481 118 892 341 1326 151 295 329 538 571 779 502 502 1132 816 1835
914 193 27 193 27 438 29 133 1 267 -4 358 -13z"/>
</g>
</svg>
