<?xml version="1.0" encoding="utf-8"?>
<svg viewBox="0 0 500 500" xmlns="http://www.w3.org/2000/svg">
  <g id="layer1" transform="matrix(0.490414, 0, 0, 0.492096, 572.064567, 2058.566133)" style="">
    <rect style="fill:#0000ff;fill-rule:evenodd;stroke-width:0.264583" id="rect1622" height="2515.365" x="-2972.7036" y="-4090.6433"/>
    <rect style="fill:#ffffff;fill-opacity:1;fill-rule:evenodd;stroke-width:0.264583" id="rect1770" width="1000" height="1000" x="-1158.3633" y="-4176.1143"/>
    <path d="m -712.62531,-4102.1061 c -7.82068,0.5421 -13.11304,1.2073 -19.28389,2.4148 -39.08202,7.6385 -74.11442,31.0219 -100.1691,66.8978 -13.54157,18.6524 -24.44768,41.3212 -31.11135,64.6802 -4.49956,15.7696 -6.92076,30.0115 -8.33491,49.157 -0.19283,2.3653 -0.27855,20.796 -0.34282,64.335 l -0.0857,61.0089 -1.5427,0.3203 c -3.85679,0.7885 -10.13476,3.1292 -14.48436,5.4208 -5.05663,2.6857 -10.02763,6.1601 -14.3772,10.1023 -2.84972,2.5874 -8.63489,9.2155 -10.90617,12.5172 -7.34923,10.7186 -11.95602,22.9154 -13.75582,36.5165 l -0.51423,3.8195 v 182.213 182.2135 l 0.49286,3.5728 c 2.24975,16.2378 8.29204,30.3812 17.80545,41.7156 11.4204,13.5765 25.47613,21.6338 41.91031,23.9994 2.84973,0.4189 13.32732,0.4435 200.33819,0.4435 187.01089,0 197.48846,-0.023 200.33815,-0.4435 10.43477,-1.5031 20.29098,-5.47 28.81877,-11.6302 5.87086,-4.2381 12.98447,-11.556 17.1198,-17.5683 7.45645,-10.891 12.1917,-23.5559 13.88438,-37.2557 0.36425,-2.9322 0.38567,-11.7041 0.38567,-185.2934 0,-174.5748 -0.0213,-182.3364 -0.38567,-185.17 -1.19991,-9.1169 -3.14968,-16.2378 -6.62078,-24.098 -4.41392,-9.9793 -10.43475,-18.4308 -18.27689,-25.675 -2.20692,-2.0452 -7.3493,-5.9382 -10.17756,-7.6878 -5.8495,-3.622 -13.60588,-6.7514 -20.07669,-8.1066 l -1.99266,-0.4187 v -57.5592 c 0,-57.0912 -0.0643,-63.1032 -0.74997,-71.9738 -4.64952,-59.8752 -32.73974,-114.3298 -75.89276,-147.175 -24.57631,-18.7016 -52.02369,-29.2231 -81.37806,-31.2189 -3.2354,-0.2219 -87.63457,-0.2956 -90.63427,-0.074 z m 86.56325,64.8775 c 24.66194,1.5029 47.35266,11.9995 66.10087,30.6275 3.42829,3.4003 9.40628,10.2748 12.25598,14.0941 14.91287,20.057 24.49056,45.5596 27.04034,71.9488 0.72848,7.4414 0.77136,11.6303 0.77136,68.5489 v 56.9925 h -148.05746 -148.05741 v -56.7463 c 0,-54.5531 0.0642,-61.058 0.66422,-67.5629 2.39977,-26.7346 11.50606,-51.5225 26.54749,-72.3187 2.8283,-3.9177 10.69184,-12.9605 14.03439,-16.1639 19.04819,-18.1844 41.95317,-28.41 65.99375,-29.4942 4.52101,-0.2217 79.17108,-0.1231 82.70647,0.073 z m -29.33294,357.404 c 13.28445,1.6016 25.71185,7.4167 36.0823,16.8785 2.89257,2.6117 8.63489,9.24 10.92753,12.5664 14.22722,20.6237 18.27685,47.777 10.82041,72.3925 -5.91374,19.5395 -18.89822,35.9992 -35.28953,44.771 l -2.31406,1.2318 v 44.1058 c 0,30.6276 -0.0642,44.771 -0.23569,46.3234 -0.94278,8.8951 -5.67803,16.435 -12.72736,20.3526 -2.99972,1.6755 -5.42093,2.4149 -8.89201,2.7105 -3.42826,0.3203 -9.32056,0.099 -11.48463,-0.4188 -4.73528,-1.1088 -8.65634,-3.5237 -12.0203,-7.392 -2.95686,-3.3758 -4.8424,-7.195 -6.04229,-12.1476 l -0.55709,-2.3654 -0.0642,-44.9189 c -0.0429,-42.2823 -0.0642,-44.9188 -0.42854,-45.0667 -1.43557,-0.5915 -6.55652,-3.3264 -8.50634,-4.5584 -5.84944,-3.6713 -10.67042,-7.8602 -15.74851,-13.7245 -6.27797,-7.2689 -10.71327,-14.7102 -14.0558,-23.556 -3.96392,-10.546 -5.63518,-20.673 -5.37807,-32.4016 0.25713,-11.8519 2.52834,-21.9789 7.30645,-32.6727 3.23542,-7.2688 7.04933,-13.2564 12.23456,-19.1947 10.75612,-12.3693 24.25485,-20.1062 39.31771,-22.521 4.13532,-0.6653 4.13532,-0.6653 9.38483,-0.7146 2.84973,-0.023 5.72088,0.099 7.6707,0.3204 z" id="path6333" style="fill:#000000;stroke:none;stroke-width:0.0352778"/>
  </g>
</svg>