<?xml version="1.0" standalone="no"?>
<!DOCTYPE svg PUBLIC "-//W3C//DTD SVG 20010904//EN"
 "http://www.w3.org/TR/2001/REC-SVG-20010904/DTD/svg10.dtd">
<svg version="1.0" xmlns="http://www.w3.org/2000/svg"
 width="3000.000000pt" height="3000.000000pt" viewBox="0 0 3000.000000 3000.000000"
 preserveAspectRatio="xMidYMid meet">

<g transform="translate(0.000000,3000.000000) scale(0.100000,-0.100000)"
fill="#000000" stroke="none">
<path d="M14670 21804 c-313 -82 -520 -397 -520 -794 0 -63 3 -125 6 -137 l6
-23 713 0 712 0 7 46 c17 124 -3 310 -47 439 -84 245 -248 410 -462 465 -97
25 -328 27 -415 4z"/>
<path d="M14370 20713 c-995 -32 -1769 -204 -2458 -548 -484 -242 -855 -516
-1234 -912 -450 -472 -804 -1094 -1051 -1848 -162 -495 -232 -940 -232 -1485
1 -356 24 -622 83 -920 l17 -85 5377 -3 c5114 -2 5377 -1 5382 15 3 10 17 83
30 163 107 629 93 1251 -40 1865 -113 520 -372 1162 -651 1614 -463 750 -1142
1336 -1958 1691 -625 272 -1311 415 -2150 449 -195 8 -920 11 -1115 4z m1805
-309 c961 -231 1857 -727 2412 -1332 409 -447 676 -937 818 -1502 74 -292 95
-476 95 -815 0 -343 -26 -641 -85 -960 -26 -140 -98 -452 -114 -490 -4 -11 -6
88 -3 220 16 816 -165 1637 -513 2325 -239 470 -522 849 -946 1265 -531 521
-1080 925 -1675 1232 -101 52 -184 97 -184 99 0 5 6 4 195 -42z m-3136 -138
c-2 -2 -53 -25 -114 -51 -526 -225 -1056 -591 -1461 -1007 -616 -634 -1034
-1458 -1171 -2313 l-18 -110 -3 145 c-12 603 199 1254 582 1795 199 282 500
605 746 801 377 300 814 536 1305 705 98 33 146 46 134 35z"/>
<path d="M22765 18892 c-67 -64 -480 -463 -919 -887 l-798 -770 83 -78 c46
-43 100 -91 120 -107 l36 -29 784 972 c921 1141 821 1017 817 1017 -2 -1 -57
-53 -123 -118z"/>
<path d="M6722 18973 c20 -22 1462 -1807 1555 -1927 l23 -29 86 79 c47 44 101
93 120 109 l34 30 -337 325 c-541 520 -1436 1385 -1462 1414 -14 14 -29 26
-35 26 -5 0 2 -12 16 -27z"/>
<path d="M5981 18383 c13 -17 584 -725 1269 -1574 685 -848 1248 -1547 1251
-1552 3 -4 90 69 194 164 l187 172 -88 87 c-49 48 -534 516 -1079 1041 -544
524 -1114 1072 -1265 1218 -470 454 -494 477 -469 444z"/>
<path d="M23284 18083 c-181 -175 -770 -742 -1309 -1262 -1112 -1071 -1266
-1222 -1263 -1232 2 -4 68 -67 148 -139 80 -73 161 -148 181 -167 l36 -34
1164 1443 c640 794 1212 1503 1271 1576 60 72 106 132 105 132 -2 0 -152 -143
-333 -317z"/>
<path d="M13265 14754 c-460 -7 -1388 -25 -1545 -29 -473 -13 -825 -24 -1240
-40 -80 -3 -269 -10 -420 -15 -300 -11 -1191 -54 -1470 -70 -887 -53 -2109
-145 -2096 -157 5 -6 398 -41 806 -72 815 -64 2082 -133 3010 -165 239 -9 489
-18 555 -21 1326 -57 4377 -79 6205 -45 981 19 2431 61 2895 85 61 3 340 17
620 30 616 31 1333 75 1860 115 406 32 806 67 811 73 5 5 -520 50 -1016 86
-665 50 -1879 116 -2550 140 -280 11 -432 16 -700 26 -287 11 -727 24 -995 30
-154 3 -460 11 -680 16 -364 9 -3624 20 -4050 13z"/>
<path d="M8135 13740 c-336 -37 -671 -192 -908 -419 -209 -201 -306 -423 -277
-634 26 -181 128 -271 323 -284 l77 -6 -20 46 c-46 103 -46 319 0 485 86 311
307 516 657 609 88 24 117 26 283 27 173 1 188 -1 235 -22 114 -52 179 -125
211 -236 25 -88 16 -245 -20 -351 -87 -257 -301 -445 -507 -445 -25 0 -29 3
-24 23 25 107 183 852 181 854 -2 3 -547 -68 -553 -71 -2 -1 -513 -2391 -513
-2400 0 -3 121 -6 270 -6 l270 0 5 23 c3 12 71 330 150 707 80 376 150 689
156 695 5 5 54 10 108 10 90 0 101 -2 139 -28 63 -41 85 -93 90 -207 5 -121
-8 -193 -105 -570 -75 -289 -76 -298 -77 -422 -1 -125 -1 -127 29 -169 49 -70
107 -93 240 -97 89 -3 135 1 240 23 71 14 131 28 133 30 2 2 -17 22 -41 44
-26 24 -54 64 -67 93 -20 46 -22 64 -18 153 4 81 18 151 76 375 89 344 106
442 100 574 -4 83 -10 112 -33 163 -33 74 -94 135 -167 167 l-51 23 49 33
c120 82 224 206 289 341 165 348 3 692 -385 817 -146 47 -383 70 -545 52z"/>
<path d="M12572 13361 c-195 -27 -266 -40 -272 -51 -4 -8 -31 -126 -61 -262
l-53 -248 -62 0 -63 0 -11 -57 c-6 -32 -14 -66 -16 -75 -5 -16 2 -18 55 -18
49 0 61 -3 61 -16 0 -9 -36 -178 -79 -377 -44 -199 -87 -399 -97 -444 l-17
-81 -124 -124 -123 -123 0 86 c0 139 -26 256 -115 524 -100 296 -121 395 -137
616 -12 160 -13 166 -33 161 -11 -3 -132 -29 -268 -57 l-249 -51 -53 -209
c-85 -337 -211 -665 -253 -665 -10 0 -42 -12 -71 -26 -98 -49 -176 -191 -195
-356 -6 -47 -16 -69 -52 -117 -60 -80 -133 -144 -202 -178 -49 -24 -69 -28
-143 -28 -75 0 -92 4 -144 30 -110 56 -155 147 -155 314 0 136 1 138 69 151
327 65 615 257 726 485 52 105 68 181 63 299 -5 120 -27 178 -91 244 -82 85
-199 123 -379 123 -122 1 -142 -2 -251 -38 -193 -62 -361 -230 -477 -477 -152
-322 -214 -798 -136 -1031 98 -289 344 -419 682 -360 164 29 274 87 408 217
50 48 91 86 92 85 0 -1 13 -29 28 -62 53 -117 160 -193 326 -231 56 -13 121
-17 260 -17 210 0 286 14 418 79 88 43 192 137 234 211 21 38 67 85 165 169
l135 117 -7 -54 c-38 -267 48 -436 253 -499 86 -27 203 -36 270 -21 114 24
281 129 438 275 40 36 74 66 77 66 2 0 7 -19 11 -42 11 -66 64 -163 116 -212
85 -79 187 -116 323 -116 169 0 282 53 430 201 77 78 99 95 104 81 32 -98 117
-187 208 -221 64 -24 159 -41 231 -41 120 0 274 75 440 216 l63 53 24 -53 c48
-105 142 -171 284 -201 210 -45 358 13 629 245 33 27 62 50 67 50 4 0 7 -11 7
-23 0 -38 58 -143 98 -178 113 -99 345 -137 494 -80 63 24 204 114 282 179 28
23 51 40 52 39 1 -1 -10 -57 -25 -124 l-28 -123 273 0 c151 0 274 3 274 7 0 3
70 337 156 742 135 639 158 738 177 754 82 66 129 89 209 100 55 8 84 -19 98
-91 25 -123 56 -152 163 -152 152 0 270 126 270 289 0 183 -169 282 -388 226
-75 -19 -206 -82 -268 -130 -27 -20 -50 -35 -53 -32 -3 2 4 43 15 91 l19 86
-272 0 -271 0 -149 -707 -149 -708 -36 -33 c-19 -18 -65 -47 -100 -65 -54 -26
-77 -32 -131 -31 -77 0 -134 24 -155 65 -30 56 -18 133 121 785 74 351 138
651 141 667 l6 27 -271 0 c-249 0 -271 -1 -276 -17 -2 -10 -68 -319 -146 -688
-77 -368 -143 -679 -145 -690 -6 -24 -76 -77 -158 -119 -50 -26 -71 -31 -126
-30 -123 1 -175 46 -173 149 0 35 59 333 141 723 78 364 141 665 141 667 0 3
-121 5 -269 5 -248 0 -270 -1 -275 -17 -16 -54 -278 -1314 -282 -1357 -9 -93
-9 -92 -91 -133 -67 -33 -86 -38 -143 -37 -68 1 -111 16 -145 54 -43 48 -36
96 118 818 l143 672 -273 0 -273 0 -6 -40 c-4 -22 -10 -43 -15 -45 -4 -3 -24
6 -44 19 -65 45 -131 61 -240 60 -168 -2 -329 -52 -461 -142 -70 -47 -185
-165 -235 -242 -152 -231 -246 -566 -262 -939 l-2 -55 -68 -52 c-110 -83 -169
-109 -252 -108 -124 0 -182 56 -170 164 8 82 208 1046 246 1193 l10 37 112 0
113 0 15 75 15 75 -113 0 c-62 0 -113 2 -113 4 0 11 122 568 127 582 6 17 35
19 -285 -25z m-2346 -765 c75 -78 69 -246 -12 -409 -46 -91 -171 -218 -261
-265 -87 -46 -273 -91 -273 -66 0 20 46 178 81 280 65 189 139 326 223 410
102 102 178 117 242 50z m3849 -35 c75 -33 79 8 -50 -603 -64 -304 -119 -561
-122 -571 -8 -32 -122 -145 -167 -166 -66 -33 -144 -24 -207 22 -62 45 -94
161 -84 309 30 425 157 787 336 952 92 86 187 104 294 57z m-3085 -206 c14
-140 39 -259 85 -405 77 -248 87 -297 81 -400 -8 -160 -66 -283 -170 -361 -68
-52 -121 -65 -206 -52 -151 24 -226 96 -252 244 -6 33 -8 62 -5 65 3 3 26 -2
51 -10 119 -41 251 10 309 118 28 52 30 183 4 232 -16 30 -65 78 -87 86 -7 2
10 67 44 173 31 94 72 227 92 298 20 70 38 126 40 124 2 -1 8 -52 14 -112z"/>
<path d="M22722 13361 c-195 -27 -266 -40 -271 -51 -5 -8 -32 -126 -62 -262
l-53 -248 -62 0 -63 0 -11 -57 c-6 -32 -14 -66 -16 -75 -5 -16 2 -18 55 -18
46 0 61 -3 61 -14 0 -8 -56 -277 -125 -599 -68 -321 -127 -620 -131 -665 -7
-79 -8 -81 -39 -96 -49 -24 -107 -29 -170 -16 -107 22 -139 84 -111 216 8 38
49 229 91 424 71 330 76 362 73 451 -3 88 -7 103 -43 175 -75 153 -219 261
-363 272 -123 8 -287 -47 -444 -151 -41 -27 -68 -40 -68 -32 0 13 26 133 36
168 5 16 -11 17 -268 15 l-273 -3 -152 -720 c-172 -811 -147 -735 -263 -793
-96 -47 -234 -30 -277 34 -33 51 -21 128 121 798 75 352 139 650 142 663 l6
23 -273 -2 -273 -3 -9 -40 c-6 -22 -11 -41 -12 -43 -1 -2 -31 13 -66 32 -91
49 -165 62 -291 47 -186 -21 -354 -95 -483 -212 -245 -225 -397 -660 -399
-1149 -1 -154 2 -183 21 -245 41 -131 128 -223 250 -267 80 -29 228 -36 310
-14 127 32 257 119 345 230 24 30 45 55 48 55 3 1 13 -21 23 -48 37 -104 146
-185 294 -216 181 -39 302 -4 504 146 43 32 79 57 79 55 0 -2 -9 -48 -20 -101
-11 -53 -20 -101 -20 -106 0 -5 119 -9 270 -9 149 0 270 2 270 4 0 2 72 345
160 762 178 847 155 774 260 816 37 14 78 22 126 22 62 1 75 -2 106 -26 20
-15 46 -47 57 -71 38 -79 32 -141 -59 -567 -93 -436 -107 -556 -76 -666 48
-166 178 -256 392 -271 143 -10 253 32 406 157 l84 67 28 -53 c65 -124 197
-184 372 -171 159 12 252 94 338 300 l16 38 -53 -1 c-100 -3 -108 -1 -143 34
-31 31 -34 39 -34 93 0 38 45 272 126 649 69 324 127 597 130 607 5 15 19 17
118 17 l113 0 15 75 15 75 -113 0 c-63 0 -114 2 -114 5 0 8 120 559 126 578 3
10 0 16 -8 16 -7 -1 -131 -18 -276 -38z m-3342 -808 c32 -16 55 -34 54 -43 -1
-8 -52 -253 -113 -545 -61 -291 -114 -542 -117 -556 -8 -42 -95 -141 -154
-176 -120 -73 -255 -16 -296 122 -14 50 -16 84 -11 200 19 421 178 849 366
979 91 63 171 69 271 19z"/>
<path d="M11523 10165 c-117 -33 -214 -109 -263 -206 -30 -59 -35 -81 -190
-819 -50 -238 -93 -437 -95 -441 -3 -3 -45 -21 -95 -38 -109 -40 -174 -82
-214 -139 -41 -58 -49 -158 -18 -219 43 -84 121 -128 227 -127 156 2 266 83
325 240 11 31 72 302 136 602 63 301 117 555 120 565 5 15 19 17 105 17 71 0
101 4 103 13 3 6 7 24 10 40 l6 27 -101 0 -102 0 7 43 c27 170 66 248 149 304
76 51 175 56 217 10 25 -26 25 -37 2 -37 -29 0 -54 -35 -59 -82 -7 -60 10 -96
52 -113 116 -49 238 40 221 162 -12 92 -72 158 -173 190 -70 22 -302 27 -370
8z m-567 -1568 c-3 -12 -10 -47 -17 -77 -21 -100 -72 -170 -124 -170 -39 0
-75 37 -75 76 0 68 50 126 145 170 64 30 79 31 71 1z"/>
<path d="M15655 10096 c-96 -42 -124 -171 -54 -251 79 -89 221 -63 264 49 50
130 -83 257 -210 202z"/>
<path d="M17200 10099 c-89 -36 -129 -153 -77 -229 52 -77 129 -98 207 -58
115 59 113 221 -4 277 -46 23 -86 26 -126 10z"/>
<path d="M15191 10061 l-114 -16 -33 -150 c-17 -82 -37 -175 -43 -206 l-12
-56 -47 24 c-41 22 -57 24 -122 20 -138 -9 -245 -63 -325 -164 -99 -127 -153
-296 -162 -510 -7 -155 3 -203 53 -261 43 -51 99 -73 185 -73 88 0 142 23 218
96 l59 56 24 -43 c33 -60 90 -90 183 -96 63 -4 80 -1 126 20 30 14 72 39 94
56 22 17 52 41 67 52 l27 21 14 -33 c18 -44 77 -94 124 -107 50 -14 132 -14
174 1 34 11 107 56 163 99 l29 23 -7 -40 c-4 -21 -10 -51 -13 -66 l-5 -28 143
0 144 0 85 407 85 406 40 18 c54 25 115 24 143 -1 48 -45 47 -76 -3 -315 -57
-270 -61 -299 -45 -365 40 -168 275 -204 428 -66 22 20 42 36 45 36 4 0 13
-13 22 -30 25 -48 95 -82 181 -88 68 -4 80 -2 137 26 34 17 81 47 105 68 24
20 45 34 48 31 3 -2 -1 -32 -9 -66 l-14 -62 145 3 145 3 63 300 c35 165 73
346 85 403 22 102 22 103 60 123 21 10 58 19 83 19 37 0 48 -5 70 -31 37 -43
34 -87 -19 -343 -25 -119 -45 -236 -45 -259 0 -140 84 -217 234 -217 73 0 131
24 198 81 52 43 58 46 58 24 0 -26 73 -90 119 -104 89 -26 198 -13 280 34 24
14 45 24 47 23 1 -2 -2 -25 -8 -51 -7 -36 -15 -48 -31 -52 -176 -37 -246 -69
-284 -126 -47 -72 -40 -182 17 -251 98 -118 323 -109 441 19 76 83 88 124 224
769 69 329 128 607 131 617 5 16 -6 17 -140 17 l-146 0 -11 -44 -11 -45 -33
34 c-45 45 -93 59 -173 52 -251 -24 -424 -290 -448 -689 -7 -117 -14 -128 -80
-128 -52 0 -94 30 -94 68 0 15 23 132 50 261 45 210 50 240 40 283 -13 64 -30
95 -77 140 -93 90 -212 89 -357 -2 -27 -17 -50 -29 -52 -27 -2 2 1 19 6 38 18
62 23 60 -132 57 l-143 -3 -47 -225 c-27 -124 -62 -292 -80 -373 l-31 -148
-46 -31 c-59 -41 -134 -50 -171 -20 -36 29 -32 59 53 457 l73 340 -139 3 c-77
1 -142 0 -145 -2 -7 -7 -149 -679 -158 -744 -7 -60 -23 -72 -95 -72 -44 0 -89
34 -89 67 0 10 23 123 50 250 28 128 50 245 50 260 -2 76 -62 172 -135 214
-82 47 -180 35 -298 -36 -32 -19 -60 -35 -62 -35 -2 0 3 23 10 50 l13 50 -143
0 c-128 0 -144 -2 -149 -17 -3 -10 -39 -177 -80 -372 -49 -230 -81 -360 -92
-372 -43 -48 -140 -72 -187 -48 -30 16 -37 28 -37 70 0 30 128 661 146 722 5
16 -6 17 -140 17 -80 0 -146 -1 -146 -3 0 -2 -34 -162 -75 -356 -41 -193 -75
-363 -75 -376 0 -19 -12 -31 -52 -55 -69 -39 -128 -41 -163 -5 -14 13 -25 30
-25 37 0 8 54 270 120 583 66 313 120 570 120 572 0 6 -68 0 -179 -16z m-261
-509 c42 -21 45 14 -31 -346 -64 -301 -72 -323 -141 -360 -44 -24 -95 -16
-129 20 -21 23 -24 36 -27 122 -8 227 94 503 208 564 43 23 75 23 120 0z
m4083 -8 c60 -46 61 -31 -9 -354 -35 -162 -64 -296 -64 -298 0 -1 -21 -16 -47
-32 -71 -46 -160 -35 -199 25 -38 58 6 367 74 518 65 143 165 201 245 141z
m-147 -1011 c-10 -70 -52 -150 -88 -169 -53 -27 -118 8 -118 64 0 34 32 87 62
103 17 10 118 43 147 48 2 1 0 -20 -3 -46z"/>
<path d="M13525 9687 c-124 -42 -206 -118 -270 -252 -65 -135 -88 -233 -91
-400 l-4 -140 -27 -17 c-31 -20 -88 -23 -128 -8 -49 19 -49 42 5 292 28 127
50 252 50 277 -1 86 -63 181 -146 222 -78 37 -181 18 -303 -57 l-43 -26 7 33
c3 19 9 42 11 52 5 16 -6 17 -140 17 -80 0 -146 -2 -146 -4 0 -2 -34 -165 -76
-363 -49 -231 -82 -365 -92 -377 -52 -58 -163 -92 -213 -65 -44 23 -43 42 36
417 42 196 78 365 81 375 5 16 -6 17 -140 17 -129 0 -145 -2 -150 -17 -3 -10
-38 -171 -77 -358 -81 -388 -87 -454 -48 -526 34 -61 91 -91 184 -97 88 -5
142 16 248 97 37 28 67 48 67 44 0 -7 -11 -56 -25 -120 l-5 -23 144 0 145 0
11 58 c141 681 156 746 183 766 16 11 48 21 81 24 48 4 57 1 80 -21 44 -44 43
-80 -8 -321 -53 -253 -58 -335 -25 -403 31 -64 90 -95 190 -101 94 -5 130 9
234 95 45 37 70 52 73 43 9 -26 77 -92 116 -113 30 -15 66 -22 129 -25 147 -8
273 30 330 98 32 38 72 160 52 160 -3 0 -26 -16 -51 -36 -71 -53 -122 -76
-183 -81 -111 -9 -161 47 -161 179 0 77 0 78 28 83 256 54 423 210 426 399 2
141 -68 205 -231 212 -56 3 -102 -1 -128 -9z m202 -102 c30 -21 46 -77 38
-133 -15 -98 -89 -198 -181 -243 -52 -25 -134 -38 -134 -21 0 25 55 183 86
247 39 79 83 131 128 151 39 17 38 17 63 -1z"/>
<path d="M8230 9409 c-1026 -65 -1897 -118 -1937 -118 -39 -1 -75 -5 -78 -11
-4 -6 13 -10 45 -10 28 0 915 -54 1970 -120 1055 -66 1935 -120 1954 -120 l36
0 0 250 0 250 -62 -1 c-35 -1 -902 -55 -1928 -120z"/>
<path d="M19980 9280 l0 -250 36 0 c19 0 898 54 1952 120 1054 65 1944 121
1977 122 41 2 52 5 35 10 -21 5 -3949 250 -3987 249 -10 -1 -13 -58 -13 -251z"/>
</g>
</svg>
