<?xml version="1.0" encoding="utf-8"?>
<svg id="master-artboard" viewBox="0 0 1400 980" version="1.1" xmlns="http://www.w3.org/2000/svg" x="0px" y="0px" style="enable-background:new 0 0 1400 980;" width="1400px" height="980px"><rect id="ee-background" x="0" y="0" width="1400" height="980" style="fill: white; fill-opacity: 0; pointer-events: none;"/><defs><style id="ee-google-fonts">@import url(https://fonts.googleapis.com/css?family=Fjalla+One:400|Roboto:100,100italic,300,300italic,400,400italic,500,500italic,700,700italic,900,900italic);</style><clipPath clipPathUnits="userSpaceOnUse" id="clipPath20"><path d="M 0,500 H 500 V 0 H 0 Z" id="path18"/></clipPath><clipPath clipPathUnits="userSpaceOnUse" id="clipPath176"><path d="m 216.925,155 h 46.517 v -51.418 h -46.517 z" id="path174"/></clipPath><clipPath clipPathUnits="userSpaceOnUse" id="clipPath200"><path d="m 297.358,255.635 h 13.964 v -10.022 h -13.964 z" id="path198"/></clipPath><clipPath clipPathUnits="userSpaceOnUse" id="clipPath252"><path d="m 284.29,186.945 h 5.027 v -10.737 h -5.027 z" id="path250"/></clipPath><clipPath clipPathUnits="userSpaceOnUse" id="clipPath268"><path d="m 243.655,180.965 h 38.757 v -77.383 h -38.757 z" id="path266"/></clipPath><clipPath clipPathUnits="userSpaceOnUse" id="clipPath284"><path d="m 250.304,184.767 h 62.818 v -60.756 h -62.818 z" id="path282"/></clipPath><clipPath clipPathUnits="userSpaceOnUse" id="clipPath300"><path d="m 284.443,231.314 h 12.1 v -30.538 h -12.1 z" id="path298"/></clipPath><clipPath clipPathUnits="userSpaceOnUse" id="clipPath320"><path d="m 285.621,213.471 h 20.896 V 184.12 h -20.896 z" id="path318"/></clipPath><clipPath clipPathUnits="userSpaceOnUse" id="clipPath336"><path d="m 296.548,257.055 h 7.645 v -6.09 h -7.645 z" id="path334"/></clipPath><clipPath clipPathUnits="userSpaceOnUse" id="clipPath352"><path d="M 273.384,218.988 H 284.86 V 202.599 H 273.384 Z" id="path350"/></clipPath><clipPath clipPathUnits="userSpaceOnUse" id="clipPath368"><path d="m 281.234,272.167 h 32.191 v -16.913 h -32.191 z" id="path366"/></clipPath><clipPath clipPathUnits="userSpaceOnUse" id="clipPath396"><path d="m 322.71,263.224 h 25.887 V 153.573 H 322.71 Z" id="path394"/></clipPath><clipPath clipPathUnits="userSpaceOnUse" id="clipPath420"><path d="m 294.641,152.74 h 6.613 v -15.551 h -6.613 z" id="path418"/></clipPath><clipPath clipPathUnits="userSpaceOnUse" id="clipPath436"><path d="m 253.414,226.951 h 57.094 V 152.74 h -57.094 z" id="path434"/></clipPath><clipPath clipPathUnits="userSpaceOnUse" id="clipPath452"><path d="m 301.254,263.537 h 27.248 V 152.74 h -27.248 z" id="path450"/></clipPath><clipPath clipPathUnits="userSpaceOnUse" id="clipPath468"><path d="m 137.796,238.394 h 19.66 v -10.902 h -19.66 z" id="path466"/></clipPath><clipPath clipPathUnits="userSpaceOnUse" id="clipPath488"><path d="m 154.719,292.29 h 16.537 v -58.771 h -16.537 z" id="path486"/></clipPath><clipPath clipPathUnits="userSpaceOnUse" id="clipPath512"><path d="M 140.475,264.903 H 154.76 V 225.944 H 140.475 Z" id="path510"/></clipPath><clipPath clipPathUnits="userSpaceOnUse" id="clipPath528"><path d="m 161.201,244.737 h 11.498 v -20.262 h -11.498 z" id="path526"/></clipPath><clipPath clipPathUnits="userSpaceOnUse" id="clipPath552"><path d="m 151.236,255.164 h 17.785 v -27.672 h -17.785 z" id="path550"/></clipPath><clipPath clipPathUnits="userSpaceOnUse" id="clipPath568"><path d="m 144.557,221.107 h 14.151 v -14.929 h -14.151 z" id="path566"/></clipPath><clipPath clipPathUnits="userSpaceOnUse" id="clipPath652"><path d="m 356.262,221.107 h 26.867 v -97.522 h -26.867 z" id="path650"/></clipPath><clipPath clipPathUnits="userSpaceOnUse" id="clipPath668"><path d="m 348.954,151.831 h 24.728 v -48.584 h -24.728 z" id="path666"/></clipPath><clipPath clipPathUnits="userSpaceOnUse" id="clipPath688"><path d="m 349.713,167.571 h 46.649 V 84.1275 h -46.649 z" id="path686"/></clipPath><clipPath clipPathUnits="userSpaceOnUse" id="clipPath708"><path d="m 85.762,208.002 h 22.224 V 172.14 H 85.762 Z" id="path706"/></clipPath><clipPath clipPathUnits="userSpaceOnUse" id="clipPath728"><path d="M 80.5026,203.035 H 127.647 V 136.777 H 80.5026 Z" id="path726"/></clipPath><clipPath clipPathUnits="userSpaceOnUse" id="clipPath748"><path d="M 0,500 H 500 V 0 H 0 Z" id="path746"/></clipPath></defs>











































<g transform="matrix(0.9999999999999999, 0, 0, 0.9999999999999999, 1.8189894035458565e-12, 4.547473508864641e-13)">
		<path class="st13" d="M448.4,599.9" style="fill: rgb(223, 243, 251);"/>
	</g>





















































<g transform="matrix(1.4700000286102295, 0, 0, 1.4700000286102295, 186.49769061065615, 10.967750358640984)"><metadata id="metadata8"/><g id="g10" transform="matrix(1.3333333,0,0,-1.3333333,0,666.66667)"><g id="g14" transform="matrix(0.6032331585884094, 0, 0, 0.6032331585884094, 94.18622096038871, 92.11794800439753)"><g id="g16" clip-path="url(#clipPath20)" transform="matrix(0.9784705638885497, 0, 0, 0.9784705638885497, 36.18226420719657, -50.167184767711774)"><g id="g22" transform="translate(417.7565,267.7282)"><path d="m 0,0 c -23.343,-34.949 -73.155,-143.037 -60.902,-183.151 l -178.707,-0.041 c 0,0 -25.823,19.226 -50.91,52.653 -4.559,6.073 -9.093,12.621 -13.439,19.602 -4.616,7.399 -9.02,15.29 -13.022,23.638 -11.631,24.21 -19.93,52.268 -20.266,83.28 -1.17,107.352 91.744,207.124 218.142,166.863 C 7.293,122.583 23.335,34.949 0,0" style="fill:#eaf9f8;fill-opacity:1;fill-rule:nonzero;stroke:none" id="path24"/></g><g id="g26" transform="translate(305.944,83.3112)"><path d="M 0,0 C -0.359,0 -0.715,0.157 -0.958,0.458 L -96.26,118.952 c -0.425,0.528 -0.341,1.301 0.187,1.727 0.529,0.424 1.302,0.341 1.726,-0.188 L 0.956,1.998 C 1.381,1.47 1.297,0.696 0.769,0.271 0.542,0.089 0.271,0 0,0" style="fill:#e03c03;fill-opacity:1;fill-rule:nonzero;stroke:none" id="path28"/></g><g id="g30" transform="translate(158.1115,83.3112)"><path d="M 0,0 C -0.27,0 -0.542,0.089 -0.769,0.271 -1.297,0.696 -1.381,1.47 -0.956,1.998 l 95.302,118.493 c 0.427,0.529 1.198,0.612 1.727,0.188 0.528,-0.426 0.612,-1.199 0.186,-1.727 L 0.958,0.458 C 0.715,0.157 0.359,0 0,0" style="fill:#ff6224;fill-opacity:1;fill-rule:nonzero;stroke:none" id="path32"/></g><g id="g34" transform="translate(253.4147,83.3112)"><path d="m 0,0 c -0.358,0 -0.714,0.157 -0.957,0.458 l -95.302,118.494 c -0.425,0.528 -0.341,1.301 0.187,1.727 0.529,0.424 1.301,0.341 1.726,-0.188 L 0.956,1.998 C 1.382,1.47 1.298,0.696 0.77,0.271 0.542,0.089 0.271,0 0,0" style="fill:#ff6224;fill-opacity:1;fill-rule:nonzero;stroke:none" id="path36"/></g><g id="g38" transform="translate(174.9992,199.8874)"><path d="m 0,0 h -44.276 c -1.738,0 -3.146,1.408 -3.146,3.146 0,1.737 1.408,3.145 3.146,3.145 H 0 C 1.737,6.291 3.146,4.883 3.146,3.146 3.146,1.408 1.737,0 0,0" style="fill:#e03c03;fill-opacity:1;fill-rule:nonzero;stroke:none" id="path40"/></g><g id="g42" transform="translate(302.3922,199.8874)"><path d="m 0,0 h -126.548 c -1.737,0 -3.145,1.408 -3.145,3.146 0,1.737 1.408,3.145 3.145,3.145 H 0 Z" style="fill:#ff6224;fill-opacity:1;fill-rule:nonzero;stroke:none" id="path44"/></g><g id="g46" transform="translate(209.1994,143.7858)"><path d="m 0,0 c 0,-1.897 -1.538,-3.436 -3.436,-3.436 -1.898,0 -3.436,1.539 -3.436,3.436 0,1.897 1.538,3.437 3.436,3.437 C -1.538,3.437 0,1.897 0,0" style="fill:#e03c03;fill-opacity:1;fill-rule:nonzero;stroke:none" id="path48"/></g><g id="g50" transform="translate(261.7281,143.7858)"><path d="m 0,0 c 0,-1.897 -1.539,-3.436 -3.437,-3.436 -1.897,0 -3.435,1.539 -3.435,3.436 0,1.897 1.538,3.437 3.435,3.437 C -1.539,3.437 0,1.897 0,0" style="fill:#ffc947;fill-opacity:1;fill-rule:nonzero;stroke:none" id="path52"/></g><g id="g54" transform="translate(216.007,300.0959)"><path d="m 0,0 h -44.606 c -2.203,0 -3.988,1.786 -3.988,3.988 v 33.174 c 0,2.202 1.785,3.988 3.988,3.988 H 0 c 2.203,0 3.988,-1.786 3.988,-3.988 V 3.988 C 3.988,1.786 2.203,0 0,0" style="fill:#20c3c5;fill-opacity:1;fill-rule:nonzero;stroke:none" id="path56"/></g><g id="g58" transform="translate(195.0592,314.0588)"><path d="m 0,0 c -4.503,-0.852 -8.372,3.017 -7.521,7.52 0.476,2.516 2.505,4.544 5.021,5.02 C 2.002,13.392 5.872,9.523 5.02,5.02 4.544,2.504 2.515,0.476 0,0 M 10.056,9.017 H 8.405 C 8.151,9.918 7.777,10.773 7.291,11.556 l 1.273,1.274 c 0.486,0.485 0.486,1.273 0,1.758 l -1.792,1.793 c -0.486,0.486 -1.273,0.486 -1.759,0 L 3.659,15.027 c -0.748,0.421 -1.551,0.751 -2.397,0.966 v 2.03 c 0,0.687 -0.556,1.244 -1.243,1.244 h -2.535 c -0.687,0 -1.244,-0.557 -1.244,-1.244 V 15.97 c -0.822,-0.212 -1.601,-0.524 -2.327,-0.925 l -1.486,1.487 c -0.486,0.485 -1.273,0.485 -1.759,0 l -1.793,-1.793 c -0.485,-0.486 -0.485,-1.273 0,-1.759 l 1.377,-1.376 c -0.46,-0.732 -0.822,-1.531 -1.082,-2.375 h -1.936 c -0.687,0 -1.244,-0.556 -1.244,-1.243 V 5.451 c 0,-0.687 0.557,-1.243 1.244,-1.243 h 1.696 c 0.191,-0.937 0.512,-1.83 0.953,-2.656 l -1.158,-1.158 c -0.486,-0.485 -0.486,-1.273 0,-1.758 l 1.793,-1.793 c 0.485,-0.486 1.273,-0.486 1.758,0 l 1.007,1.007 c 0.839,-0.547 1.762,-0.969 2.744,-1.242 v -1.407 c 0,-0.687 0.557,-1.243 1.244,-1.243 h 2.535 c 0.687,0 1.243,0.556 1.243,1.243 v 1.313 c 1.016,0.239 1.973,0.626 2.845,1.147 l 0.968,-0.969 c 0.486,-0.485 1.273,-0.485 1.759,0 l 1.793,1.793 c 0.485,0.486 0.485,1.273 0,1.759 L 7.419,1.238 c 0.494,0.848 0.865,1.774 1.093,2.757 h 1.544 c 0.686,0 1.243,0.556 1.243,1.243 v 2.535 c 0,0.687 -0.557,1.244 -1.243,1.244" style="fill:#ffffff;fill-opacity:1;fill-rule:nonzero;stroke:none" id="path60"/></g><g id="g62" transform="translate(283.1627,322.8278)"><path d="m 0,0 h -44.606 c -2.203,0 -3.989,1.785 -3.989,3.988 v 33.174 c 0,2.202 1.786,3.987 3.989,3.987 H 0 c 2.202,0 3.988,-1.785 3.988,-3.987 V 3.988 C 3.988,1.785 2.202,0 0,0" style="fill:#ff6224;fill-opacity:1;fill-rule:nonzero;stroke:none" id="path64"/></g><g id="g66" transform="translate(251.9811,336.4865)"><path d="M 0,0 C -0.314,0 -0.628,0.128 -0.868,0.385 L -6.41,6.316 c -0.48,0.514 -0.48,1.345 0,1.858 l 5.636,6.031 c 0.479,0.513 1.256,0.513 1.736,0 0.479,-0.513 0.479,-1.345 0,-1.858 L -3.806,7.245 0.868,2.243 c 0.48,-0.514 0.48,-1.346 0,-1.858 C 0.628,0.128 0.314,0 0,0" style="fill:#ffffff;fill-opacity:1;fill-rule:nonzero;stroke:none" id="path68"/></g><g id="g70" transform="translate(269.7369,336.4865)"><path d="m 0,0 c -0.314,0 -0.628,0.128 -0.868,0.385 -0.48,0.512 -0.48,1.345 0,1.858 l 4.675,5.002 -4.769,5.102 c -0.479,0.513 -0.479,1.344 0,1.858 0.48,0.513 1.257,0.513 1.736,0 L 6.411,8.174 C 6.642,7.928 6.771,7.594 6.771,7.245 6.771,6.896 6.642,6.562 6.411,6.316 L 0.868,0.385 C 0.628,0.128 0.313,0 0,0" style="fill:#ffffff;fill-opacity:1;fill-rule:nonzero;stroke:none" id="path72"/></g><g id="g74" transform="translate(258.108,334.8566)"><path d="m 0,0 c -0.153,0 -0.311,0.031 -0.462,0.098 -0.629,0.273 -0.93,1.04 -0.675,1.712 l 5.501,14.462 c 0.256,0.671 0.969,0.998 1.601,0.722 0.628,-0.274 0.93,-1.04 0.675,-1.712 L 1.138,0.819 C 0.943,0.309 0.485,0 0,0" style="fill:#ffffff;fill-opacity:1;fill-rule:nonzero;stroke:none" id="path76"/></g><g id="g78" transform="translate(323.4283,314.9206)"><path d="m 0,0 h -110.677 v 3.397 c 0,0.917 0.743,1.66 1.659,1.66 H -1.659 C -0.742,5.057 0,4.314 0,3.397 Z" style="fill:#ffffff;fill-opacity:1;fill-rule:nonzero;stroke:none" id="path80"/></g><g id="g82" transform="translate(320.3385,255.9152)"><path d="m 0,0 h -104.497 c -1.707,0 -3.09,1.384 -3.09,3.09 V 59.005 H 3.09 V 3.09 C 3.09,1.384 1.707,0 0,0" style="fill:#383873;fill-opacity:1;fill-rule:nonzero;stroke:none" id="path84"/></g><g id="g86" transform="translate(318.1168,317.4489)"><path d="m 0,0 c 0,-0.43 -0.349,-0.778 -0.778,-0.778 -0.43,0 -0.779,0.348 -0.779,0.778 0,0.43 0.349,0.778 0.779,0.778 C -0.349,0.778 0,0.43 0,0" style="fill:#ff6224;fill-opacity:1;fill-rule:nonzero;stroke:none" id="path88"/></g><g id="g90" transform="translate(312.7682,317.4489)"><path d="m 0,0 c 0,-0.43 -0.349,-0.778 -0.778,-0.778 -0.43,0 -0.779,0.348 -0.779,0.778 0,0.43 0.349,0.778 0.779,0.778 C -0.349,0.778 0,0.43 0,0" style="fill:#ff6224;fill-opacity:1;fill-rule:nonzero;stroke:none" id="path92"/></g><g id="g94" transform="translate(307.4196,317.4489)"><path d="m 0,0 c 0,-0.43 -0.349,-0.778 -0.778,-0.778 -0.43,0 -0.778,0.348 -0.778,0.778 0,0.43 0.348,0.778 0.778,0.778 C -0.349,0.778 0,0.43 0,0" style="fill:#ff6224;fill-opacity:1;fill-rule:nonzero;stroke:none" id="path96"/></g><g id="g98" transform="translate(279.9479,306.9465)"><path d="m 0,0 h -61.459 c -0.591,0 -1.07,0.479 -1.07,1.07 0,0.591 0.479,1.07 1.07,1.07 H 0 C 0.591,2.14 1.069,1.661 1.069,1.07 1.069,0.479 0.591,0 0,0" style="fill:#20c3c5;fill-opacity:1;fill-rule:nonzero;stroke:none" id="path100"/></g><g id="g102" transform="translate(279.9479,300.1393)"><path d="m 0,0 h -61.459 c -0.591,0 -1.07,0.479 -1.07,1.07 0,0.591 0.479,1.07 1.07,1.07 H 0 C 0.591,2.14 1.069,1.661 1.069,1.07 1.069,0.479 0.591,0 0,0" style="fill:#20c3c5;fill-opacity:1;fill-rule:nonzero;stroke:none" id="path104"/></g><g id="g106" transform="translate(250.6286,293.3322)"><path d="m 0,0 h -32.14 c -0.59,0 -1.069,0.479 -1.069,1.07 0,0.591 0.479,1.07 1.069,1.07 H 0 C 0.59,2.14 1.069,1.661 1.069,1.07 1.069,0.479 0.59,0 0,0" style="fill:#20c3c5;fill-opacity:1;fill-rule:nonzero;stroke:none" id="path108"/></g><g id="g110" transform="translate(279.9479,279.718)"><path d="m 0,0 h -61.459 c -0.591,0 -1.07,0.479 -1.07,1.07 0,0.591 0.479,1.07 1.07,1.07 H 0 C 0.591,2.14 1.069,1.661 1.069,1.07 1.069,0.479 0.591,0 0,0" style="fill:#ff6224;fill-opacity:1;fill-rule:nonzero;stroke:none" id="path112"/></g><g id="g114" transform="translate(250.6286,272.9108)"><path d="m 0,0 h -32.14 c -0.59,0 -1.069,0.479 -1.069,1.07 0,0.591 0.479,1.07 1.069,1.07 H 0 C 0.59,2.14 1.069,1.661 1.069,1.07 1.069,0.479 0.59,0 0,0" style="fill:#ff6224;fill-opacity:1;fill-rule:nonzero;stroke:none" id="path116"/></g><g id="g118" transform="translate(250.6286,266.1037)"><path d="m 0,0 h -32.14 c -0.59,0 -1.069,0.479 -1.069,1.07 0,0.591 0.479,1.07 1.069,1.07 H 0 C 0.59,2.14 1.069,1.661 1.069,1.07 1.069,0.479 0.59,0 0,0" style="fill:#20c3c5;fill-opacity:1;fill-rule:nonzero;stroke:none" id="path120"/></g><g id="g122" transform="translate(279.9479,293.3322)"><path d="m 0,0 h -23.096 c -0.591,0 -1.07,0.479 -1.07,1.07 0,0.591 0.479,1.07 1.07,1.07 H 0 C 0.591,2.14 1.069,1.661 1.069,1.07 1.069,0.479 0.591,0 0,0" style="fill:#ffffff;fill-opacity:1;fill-rule:nonzero;stroke:none" id="path124"/></g><g id="g126" transform="translate(310.4547,308.6183)"><path d="m 0,0 -16.331,-16.331 c -0.418,-0.418 -1.095,-0.418 -1.513,0 -0.418,0.417 -0.418,1.095 0,1.513 L -1.513,1.513 C -1.095,1.931 -0.417,1.931 0,1.513 0.418,1.095 0.418,0.418 0,0" style="fill:#ff6224;fill-opacity:1;fill-rule:nonzero;stroke:none" id="path128"/></g><g id="g130" transform="translate(311.1637,277.7243)"><path d="m 0,0 c 0,-5.318 -4.312,-9.63 -9.631,-9.63 -5.318,0 -9.63,4.312 -9.63,9.63 0,5.319 4.312,9.63 9.63,9.63 C -4.312,9.63 0,5.319 0,0" style="fill:#ff6224;fill-opacity:1;fill-rule:nonzero;stroke:none" id="path132"/></g><g id="g134" transform="translate(300.2731,271.0129)"><path d="m 0,0 c 0,-3.011 -2.44,-5.452 -5.451,-5.452 -3.011,0 -5.452,2.441 -5.452,5.452 0,3.011 2.441,5.452 5.452,5.452 C -2.44,5.452 0,3.011 0,0" style="fill:#20c3c5;fill-opacity:1;fill-rule:nonzero;stroke:none" id="path136"/></g><g id="g138" transform="translate(212.7516,261.8864)"><path d="M 0,0 V -19.471 L 17.895,-1.576" style="fill:#383873;fill-opacity:1;fill-rule:nonzero;stroke:none" id="path140"/></g><g id="g142" transform="translate(193.7038,237.152)"><path d="M 0,0 H 39.262 L 53.46,-27.326 H 14.198 Z" style="fill:#86bfbc;fill-opacity:1;fill-rule:nonzero;stroke:none" id="path144"/></g><g id="g146" transform="translate(208.6964,211.8474)"><path d="m 0,0 -11.756,22.626 c -0.246,0.475 0.098,1.041 0.632,1.041 h 33.966 c 0.266,0 0.51,-0.147 0.633,-0.384 L 35.231,0.657 C 35.478,0.183 35.133,-0.384 34.599,-0.384 H 0.632 C 0.366,-0.384 0.123,-0.236 0,0" style="fill:#ffffff;fill-opacity:1;fill-rule:nonzero;stroke:none" id="path148"/></g><path d="m 239.701,209.826 h -31.799 v -3.647 h 31.799 z" style="fill:#b8e3e2;fill-opacity:1;fill-rule:nonzero;stroke:none" id="path150"/><g id="g152" transform="translate(267.0201,209.8259)"><path d="m 0,0 h -31.379 c -1.007,0 -1.824,-0.816 -1.824,-1.823 0,-1.008 0.817,-1.824 1.824,-1.824 H 0 c 1.008,0 1.824,0.816 1.824,1.824 C 1.824,-0.816 1.008,0 0,0" style="fill:#9fccc9;fill-opacity:1;fill-rule:nonzero;stroke:none" id="path154"/></g><g id="g156" transform="translate(207.9015,209.8259)"><path d="m 0,0 -14.198,27.326 -0.711,-0.534 c -0.46,-0.345 -0.601,-0.972 -0.333,-1.48 L 0,-3.647 Z" style="fill:#b8e3e2;fill-opacity:1;fill-rule:nonzero;stroke:none" id="path158"/></g><path d="m 222.197,207.516 h -3.501 v 0.607 h 3.501 z" style="fill:#9fccc9;fill-opacity:1;fill-rule:nonzero;stroke:none" id="path160"/><path d="m 226.597,207.516 h -3.5 v 0.607 h 3.5 z" style="fill:#9fccc9;fill-opacity:1;fill-rule:nonzero;stroke:none" id="path162"/><path d="m 230.997,207.516 h -3.5 v 0.607 h 3.5 z" style="fill:#9fccc9;fill-opacity:1;fill-rule:nonzero;stroke:none" id="path164"/><g id="g166" transform="translate(279.483,156.3415)"><path d="m 0,0 c 0,0 -32.567,-25.356 -37.732,-31.798 -1.948,-2.439 -5.345,-6.712 -8.864,-11.091 -5.778,-7.194 -11.909,-14.691 -12.637,-14.872 -1.162,-0.294 -10.935,7.146 -11.23,8.75 -0.18,0.999 8.717,16.272 16.419,28.549 4.69,7.464 8.929,13.832 10.419,15.207 3.937,3.651 28.164,16.484 28.164,16.484 z" style="fill:#383873;fill-opacity:1;fill-rule:nonzero;stroke:none" id="path168"/></g><g id="g170"><g id="g172"/><g id="g184"><g clip-path="url(#clipPath176)" opacity="0.149994" id="g182"><g transform="translate(217.3346,103.9919)" id="g180"><path d="M 0,0 C 0,0 30.425,43.306 45.698,50.599" style="fill:none;stroke:#000000;stroke-width:0.818;stroke-linecap:round;stroke-linejoin:miter;stroke-miterlimit:10;stroke-dasharray:none;stroke-opacity:1" id="path178"/></g></g></g></g><g id="g186" transform="translate(313.4254,267.5397)"><path d="m 0,0 c -0.344,-0.786 -0.737,-1.604 -1.179,-2.439 -2.382,-4.551 -0.622,-9.11 -3.34,-10.272 -0.163,-0.065 -0.343,-0.131 -0.547,-0.172 -3.503,-0.778 -11.574,3.888 -11.926,6.22 -0.352,2.333 2.488,6.328 0,6.81 -2.487,0.483 -3.83,-3.699 -3.83,-3.699 -2.046,-0.213 -2.775,3.217 -6.131,3.217 -0.475,0 -0.941,-0.066 -1.391,-0.181 -1.58,-0.393 -2.963,-1.366 -3.847,-2.12 -0.655,-0.548 -1.032,-0.982 -1.032,-0.982 0,0 -2.987,1.891 -2.847,5.615 0.237,5.901 2.414,10.207 7.661,11.082 0.581,6.565 5.982,10.067 13.201,10.289 6.327,0.196 7.276,-5.493 7.424,-6.909 -0.057,1.056 -0.352,4.527 -1.858,6.909 3.167,0.139 5.958,-2.12 5.23,-9.487 0.728,2.194 3.282,3.577 5.247,1.973 -1.817,0 -3.569,-3.061 -3.569,-3.061 0,0 2.136,-1.367 3.593,-3.896 C 2.07,6.81 1.612,3.724 0,0" style="fill:#382424;fill-opacity:1;fill-rule:nonzero;stroke:none" id="path188"/></g><g id="g190" transform="translate(308.9069,254.8288)"><path d="m 0,0 -0.081,-1.081 -0.278,-3.83 c 0,0 -5.828,-4.985 -9.135,0 -0.025,0.033 -0.041,0.066 -0.073,0.099 -1.024,1.521 -1.949,2.054 -2.791,2.152 -1.826,0.221 -3.299,-1.564 -4.822,0.368 -4.354,5.525 -6.089,11.925 -6.645,14.487 0.45,0.115 0.916,0.18 1.39,0.18 3.357,0 4.085,-3.429 6.131,-3.216 0,0 1.343,4.182 3.83,3.699 2.489,-0.483 -0.351,-4.477 0,-6.81 0.157,-1.039 1.851,-2.545 3.995,-3.822 2.497,-1.497 5.607,-2.684 7.579,-2.455 0.123,0.016 0.238,0.033 0.352,0.057 C -0.344,-0.131 -0.163,-0.065 0,0" style="fill:#ffad94;fill-opacity:1;fill-rule:nonzero;stroke:none" id="path192"/></g><g id="g194"><g id="g196"/><g id="g208"><g clip-path="url(#clipPath200)" opacity="0.25" id="g206"><g transform="translate(309.816,247.6999)" id="g204"><path d="m 0,0 c -2.628,-1.793 -7.44,-2.087 -7.44,-2.087 l -3.937,0.581 c 0,0 -1.645,2.39 -0.876,3.724 0.148,0.262 0.516,0.622 1.039,1.048 1.057,0.867 2.759,1.98 4.519,2.897 1.816,0.941 3.691,1.686 5.042,1.768 C 1.653,8.119 2.627,1.8 0,0" style="fill:#000000;fill-opacity:1;fill-rule:nonzero;stroke:none" id="path202"/></g></g></g></g><g id="g210" transform="translate(309.0377,183.8581)"><path d="m 0,0 c -5.859,-1.129 -18.26,2.325 -24.193,4.993 -1.752,0.786 -2.948,1.506 -3.234,2.014 -1.137,2.005 0.008,3.544 2.832,9.911 0.32,0.721 0.655,1.498 1.015,2.341 1.915,4.51 1.924,14.127 1.915,22.419 -0.024,7.095 -0.057,13.218 1.072,14.306 2.447,2.358 14.659,10.076 14.659,10.076 l 2.431,-12.67 c 0,0 1.375,-6.434 2.824,-14.831 C 1.989,23.098 4.92,0.95 0,0" style="fill:#20c3c5;fill-opacity:1;fill-rule:nonzero;stroke:none" id="path212"/></g><g id="g214" transform="translate(313.1227,178.2194)"><path d="m 0,0 c 0,-0.581 -5.836,-14.192 -10.73,-16.141 -4.895,-1.948 -34.393,0.197 -34.393,0.197 l -14.585,-9.535 3.053,-28.729 2.128,-20.02 0.065,-0.647 c -4.461,-2.913 -15.698,-3.699 -16.91,-1.187 -0.008,0.008 -0.008,0.017 -0.008,0.017 -1.17,2.529 -19.062,56.401 -12.056,65.74 6.998,9.33 51.924,22.951 51.924,22.951 1.171,-0.746 2.53,-1.417 4.011,-2.014 4.992,-2.046 11.336,-3.331 16.165,-4.084 1.857,-0.287 3.486,-0.5 4.731,-0.647 1.571,-0.188 2.52,-0.262 2.52,-0.262 C -4.085,5.639 0,0.589 0,0" style="fill:#383873;fill-opacity:1;fill-rule:nonzero;stroke:none" id="path216"/></g><g id="g218" transform="translate(260.5104,84.5768)"><path d="m 0,0 h -37.928 c -0.188,0.671 0.065,1.351 0.638,2.038 1.539,1.85 5.394,3.708 9.11,5.313 3.528,1.522 6.916,2.831 8.054,3.731 2.676,2.12 1.44,6.245 1.367,6.499 0.409,-0.843 1.956,-1.317 4.002,-1.457 4.019,-0.286 9.953,0.712 12.907,2.644 l -0.065,0.647 C -0.785,17.254 -0.254,6.572 -0.073,2.038 -0.024,0.786 0,0 0,0" style="fill:#0c2059;fill-opacity:1;fill-rule:nonzero;stroke:none" id="path220"/></g><g id="g222" transform="translate(245.7536,100.7009)"><path d="m 0,0 c -0.115,-1.809 -0.376,-4.738 -0.9,-5.524 -0.778,-1.171 -9.143,-5.255 -10.305,-4.863 -0.753,0.246 -1.67,1.065 -2.218,1.614 3.527,1.522 6.916,2.831 8.054,3.731 2.676,2.12 1.44,6.245 1.367,6.499 C -3.593,0.614 -2.046,0.14 0,0" style="fill:#2e4780;fill-opacity:1;fill-rule:nonzero;stroke:none" id="path224"/></g><g id="g226" transform="translate(260.5104,84.5768)"><path d="m 0,0 h -37.928 c -0.188,0.671 0.065,1.351 0.638,2.038 H -0.073 C -0.024,0.786 0,0 0,0" style="fill:#2e4780;fill-opacity:1;fill-rule:nonzero;stroke:none" id="path228"/></g><g id="g230" transform="translate(220.2496,98.5807)"><path d="m 0,0 c 0,0 -2.881,-7.595 -5.377,-11.613 -0.991,-1.605 -1.932,-2.645 -2.595,-2.391 -2.333,0.876 -25.774,20.806 -23.531,22.263 0.327,0.213 0.851,0.36 1.506,0.442 2.038,0.262 5.418,-0.024 8.545,-0.344 2.684,-0.278 5.181,-0.581 6.482,-0.581 3.306,0 3.741,0.974 3.741,0.974 0.073,-0.385 0.695,-1.113 1.62,-1.997 C -6.711,4.003 -0.884,-0.221 0,0" style="fill:#0c2059;fill-opacity:1;fill-rule:nonzero;stroke:none" id="path232"/></g><g id="g234" transform="translate(210.6408,105.3337)"><path d="m 0,0 c -4.968,-3.29 -10.149,-1.31 -11.172,-0.557 -0.753,0.549 -0.753,1.572 -0.671,2.161 2.684,-0.278 5.18,-0.581 6.482,-0.581 3.306,0 3.74,0.974 3.74,0.974 C -1.547,1.612 -0.925,0.884 0,0" style="fill:#2e4780;fill-opacity:1;fill-rule:nonzero;stroke:none" id="path236"/></g><g id="g238" transform="translate(214.8722,86.9675)"><path d="m 0,0 c -0.99,-1.604 -1.932,-2.645 -2.595,-2.391 -2.332,0.876 -25.774,20.806 -23.531,22.263 0.328,0.213 0.852,0.36 1.506,0.442 z" style="fill:#2e4780;fill-opacity:1;fill-rule:nonzero;stroke:none" id="path240"/></g><g id="g242" transform="translate(284.86,208.6833)"><path d="m 0,0 c -1.833,-2.554 -5.115,-6.45 -7.816,-6.057 -0.098,0.016 -0.205,0.033 -0.335,0.057 -5.158,0.909 -35.482,8.513 -36.914,8.799 -1.457,0.286 -11.664,0.385 -11.082,1.457 0.581,1.072 6.417,4.469 7.972,4.387 1.555,-0.082 7.685,-1.858 13.807,-1.662 6.131,0.189 22.173,0 22.173,0 l 0.778,1.342 1.146,1.982 C -10.591,4.362 -3.429,-0.483 0,0" style="fill:#ffad94;fill-opacity:1;fill-rule:nonzero;stroke:none" id="path244"/></g><g id="g246"><g id="g248"/><g id="g260"><g clip-path="url(#clipPath252)" opacity="0.149994" id="g258"><g transform="translate(284.86,186.5358)" id="g256"><path d="M 0,0 C 0,0 -1.397,-7.439 4.048,-9.919" style="fill:none;stroke:#000000;stroke-width:0.818;stroke-linecap:round;stroke-linejoin:miter;stroke-miterlimit:10;stroke-dasharray:none;stroke-opacity:1" id="path254"/></g></g></g></g><g id="g262"><g id="g264"/><g id="g276"><g clip-path="url(#clipPath268)" opacity="0.149994" id="g274"><g transform="translate(282.0026,180.5554)" id="g272"><path d="m 0,0 c 0,0 -36.023,-15.365 -37.752,-20.13 -1.729,-4.765 9.164,-56.433 9.164,-56.433" style="fill:none;stroke:#000000;stroke-width:0.818;stroke-linecap:round;stroke-linejoin:miter;stroke-miterlimit:10;stroke-dasharray:none;stroke-opacity:1" id="path270"/></g></g></g></g><g id="g278"><g id="g280"/><g id="g292"><g clip-path="url(#clipPath284)" opacity="0.149994" id="g290"><g transform="translate(313.1227,178.2194)" id="g288"><path d="m 0,0 c 0,-0.581 -5.836,-14.192 -10.73,-16.141 -4.895,-1.948 -34.393,0.197 -34.393,0.197 l -14.585,-9.535 3.053,-28.729 c 0,0 -6.163,32.812 -6.163,34.957 0,1.833 40.744,13.546 51.482,25.799 C -7.129,5.885 -4.085,5.639 -4.085,5.639 -4.085,5.639 0,0.589 0,0" style="fill:#000000;fill-opacity:1;fill-rule:nonzero;stroke:none" id="path286"/></g></g></g></g><g id="g294"><g id="g296"/><g id="g308"><g clip-path="url(#clipPath300)" opacity="0.25" id="g306"><g transform="translate(293.9127,213.0368)" id="g304"><path d="m 0,0 c -2.529,-3.585 -6.605,-8.135 -9.47,-12.261 0.32,0.721 0.655,1.498 1.015,2.341 1.915,4.51 1.924,14.127 1.915,22.419 l 8.733,5.778 C 2.193,18.277 4.084,5.787 0,0" style="fill:#000000;fill-opacity:1;fill-rule:nonzero;stroke:none" id="path302"/></g></g></g></g><g id="g310" transform="translate(286.4567,209.7878)"><path d="M 0,0 C -0.377,-0.344 -0.762,-0.687 -1.146,-1.007 -1.285,-1.056 -1.433,-1.089 -1.597,-1.104 -5.025,-1.588 -12.188,3.258 -11.868,9.2 c 0.024,0.442 0.377,1.325 0.949,2.48 2.931,5.909 11.745,19.062 13.366,18.457 0,0 5.663,-0.876 7.202,-8.611 C 11.09,14.267 5.893,5.459 0,0" style="fill:#169799;fill-opacity:1;fill-rule:nonzero;stroke:none" id="path312"/></g><g id="g314"><g id="g316"/><g id="g328"><g clip-path="url(#clipPath320)" opacity="0.25" id="g326"><g transform="translate(306.5172,184.1208)" id="g324"><path d="m 0,0 c -1.244,0.146 -2.873,0.359 -4.73,0.646 -4.83,0.753 -11.173,2.039 -16.166,4.084 4.404,0.156 13.825,3.053 14.962,24.621 0.516,-4.036 1.293,-8.218 2.373,-12.498 C -2.111,11.164 -0.745,5.164 0,0" style="fill:#000000;fill-opacity:1;fill-rule:nonzero;stroke:none" id="path322"/></g></g></g></g><g id="g330"><g id="g332"/><g id="g344"><g clip-path="url(#clipPath336)" opacity="0.25" id="g342"><g transform="translate(304.193,255.2624)" id="g340"><path d="m 0,0 c -0.45,-0.524 -0.802,-0.999 -1.072,-1.399 -1.76,-0.917 -3.462,-2.03 -4.519,-2.898 -0.736,0.81 -1.416,1.13 -2.054,1.203 l 3.879,4.886 C -2.587,1.081 -1.269,0.45 0,0" style="fill:#000000;fill-opacity:1;fill-rule:nonzero;stroke:none" id="path338"/></g></g></g></g><g id="g346"><g id="g348"/><g id="g360"><g clip-path="url(#clipPath352)" opacity="0.25" id="g358"><g transform="translate(284.86,208.6833)" id="g356"><path d="m 0,0 c -1.833,-2.554 -5.115,-6.45 -7.816,-6.057 -0.098,0.016 -0.205,0.033 -0.335,0.057 -3.34,4.829 -3.463,11.156 -3.266,14.323 l 1.146,1.982 C -10.591,4.362 -3.429,-0.483 0,0" style="fill:#000000;fill-opacity:1;fill-rule:nonzero;stroke:none" id="path354"/></g></g></g></g><g id="g362"><g id="g364"/><g id="g376"><g clip-path="url(#clipPath368)" opacity="0.25" id="g374"><g transform="translate(313.4254,267.5397)" id="g372"><path d="m 0,0 c -0.344,-0.786 -0.737,-1.604 -1.179,-2.439 -1.171,-2.234 -1.334,-4.461 -1.53,-6.302 -0.394,0.303 -0.794,0.581 -1.195,0.818 -2.53,-1.506 -4.232,-3.069 -5.328,-4.354 l -0.009,-0.008 c -3.569,1.277 -7.505,4.01 -7.751,5.622 -0.352,2.333 2.488,6.328 0,6.81 -2.487,0.483 -3.83,-3.699 -3.83,-3.699 -2.046,-0.213 -2.775,3.217 -6.131,3.217 -0.475,0 -0.941,-0.066 -1.391,-0.181 -1.58,-0.393 -2.963,-1.366 -3.847,-2.12 0,0 3.782,5.312 9.715,4.24 0,0 -0.867,1.654 -4.861,1.457 8.364,2.726 13.709,1.653 16.287,-1.359 C -8.946,-0.761 -4.011,-3.806 0,0" style="fill:#000000;fill-opacity:1;fill-rule:nonzero;stroke:none" id="path370"/></g></g></g></g><g id="g378" transform="translate(330.4332,152.7399)"><path d="m 0,0 h -29.179 c 0,0 23.147,6.81 23.147,52.71 0,0.59 0,1.171 -0.008,1.752 -0.237,30.676 -6.794,47.594 -14.872,52.415 2.529,1.498 5.892,2.93 10.337,3.92 1.94,0.442 4.076,0.794 6.442,1.04 19.979,2.038 35.939,-5.795 37.838,-14.659 C 35.596,88.313 23.916,0 0,0" style="fill:#b8e3e2;fill-opacity:1;fill-rule:nonzero;stroke:none" id="path380"/></g><g id="g382" transform="translate(324.401,205.4499)"><path d="m 0,0 c 0,-45.9 -23.146,-52.71 -23.146,-52.71 h -47.84 l 1.988,1.416 12.597,8.119 25.283,1.752 c 1.358,5.639 5.057,5.827 10.697,6.417 3.282,0.335 3.602,5.876 2.603,13.201 -0.729,5.272 -2.136,11.468 -3.626,17.328 -1.08,4.281 -1.858,8.463 -2.373,12.498 -0.615,4.723 -0.884,9.233 -0.91,13.481 -0.073,9.674 1.106,17.94 2.35,23.915 0.114,0.582 0.237,1.138 0.36,1.67 0,0.017 0.008,0.041 0.008,0.058 0.114,0.253 0.614,1.284 1.792,2.66 l 0.009,0.008 c 1.097,1.285 2.799,2.848 5.328,4.354 0.401,-0.237 0.802,-0.516 1.195,-0.818 C -6.163,47.619 -0.237,30.897 -0.008,1.752 0,1.171 0,0.59 0,0" style="fill:#86bfbc;fill-opacity:1;fill-rule:nonzero;stroke:none" id="path384"/></g><g id="g386" transform="translate(315.1686,84.5768)"><path d="m 0,0 h -34.441 c -1.179,0 -1.695,1.49 -0.762,2.219 l 8.619,6.744 c 3.822,2.995 6.057,7.587 6.057,12.44 v 46.76 h 6.613 v -46.76 c 0,-4.853 2.234,-9.445 6.064,-12.44 L 0.761,2.219 C 1.694,1.49 1.179,0 0,0" style="fill:#b8e3e2;fill-opacity:1;fill-rule:nonzero;stroke:none" id="path388"/></g><g id="g390"><g id="g392"/><g id="g412"><g clip-path="url(#clipPath396)" opacity="0.25" id="g410"><g transform="translate(341.4371,262.8151)" id="g400"><path d="M 0,0 C 0,0 0.251,-0.643 0.663,-1.931" style="fill:none;stroke:#000000;stroke-width:0.818;stroke-linecap:round;stroke-linejoin:miter;stroke-miterlimit:10;stroke-dasharray:none;stroke-opacity:1" id="path398"/></g><g transform="translate(343.2584,256.9011)" id="g404"><path d="M 0,0 C 1.171,-4.388 2.691,-11.224 3.898,-20.527 7.029,-44.682 3.849,-78.585 -17.155,-100.062" style="fill:none;stroke:#000000;stroke-width:0.818;stroke-linecap:round;stroke-linejoin:miter;stroke-miterlimit:10;stroke-dasharray:4.153, 4.153;stroke-dashoffset:0;stroke-opacity:1" id="path402"/></g><g transform="translate(324.6207,155.3727)" id="g408"><path d="M 0,0 C -0.491,-0.47 -0.992,-0.934 -1.502,-1.391" style="fill:none;stroke:#000000;stroke-width:0.818;stroke-linecap:round;stroke-linejoin:miter;stroke-miterlimit:10;stroke-dasharray:none;stroke-opacity:1" id="path406"/></g></g></g></g><g id="g414"><g id="g416"/><g id="g428"><g clip-path="url(#clipPath420)" opacity="0.149994" id="g426"><g transform="translate(301.2545,152.7399)" id="g424"><path d="m 0,0 v -12.769 c -2.292,-1.194 -4.616,-2.111 -6.613,-2.782 V 0 Z" style="fill:#000000;fill-opacity:1;fill-rule:nonzero;stroke:none" id="path422"/></g></g></g></g><g id="g430"><g id="g432"/><g id="g444"><g clip-path="url(#clipPath436)" opacity="0.149994" id="g442"><g transform="translate(310.3971,172.5798)" id="g440"><path d="m 0,0 c -1.556,-4.861 -11.271,-3.991 -12.449,-7.587 -2.502,-7.631 -3.888,-4.272 -13.505,-5.247 -5.5,-0.557 -9.494,-4.084 -11.9,-7.006 h -19.128 l 1.988,1.416 12.597,8.119 25.283,1.752 c 1.358,5.639 5.057,5.827 10.697,6.417 3.282,0.335 3.602,5.876 2.603,13.201 -0.729,5.272 -2.136,11.468 -3.626,17.329 -1.081,4.28 -1.858,8.462 -2.373,12.498 -0.615,4.722 -0.884,9.232 -0.91,13.48 C -6.981,34.875 1.154,3.602 0,0" style="fill:#000000;fill-opacity:1;fill-rule:nonzero;stroke:none" id="path438"/></g></g></g></g><g id="g446"><g id="g448"/><g id="g460"><g clip-path="url(#clipPath452)" opacity="0.149994" id="g458"><g transform="translate(324.401,205.4499)" id="g456"><path d="m 0,0 c 0,0.59 0,1.171 -0.008,1.752 -0.237,30.676 -6.794,47.594 -14.872,52.415 2.529,1.498 5.893,2.93 10.337,3.92 -1.334,-1.923 -2.726,-4.812 -2.07,-7.898 C -5.442,44.73 7.784,23.728 2.726,-9.92 -0.925,-34.196 0.286,-46.825 4.101,-52.71 H -23.146 C -23.146,-52.71 0,-45.9 0,0" style="fill:#000000;fill-opacity:1;fill-rule:nonzero;stroke:none" id="path454"/></g></g></g></g><g id="g462"><g id="g464"/><g id="g476"><g clip-path="url(#clipPath468)" opacity="0.25" id="g474"><g transform="translate(157.4562,230.4548)" id="g472"><path d="m 0,0 c -0.017,-1.064 -0.115,-2.071 -0.311,-2.963 h -9.388 c -2.759,1.833 -7.26,5.459 -9.961,10.901 2.513,-2.733 6.802,-6.064 11.172,-7.079 C -4.674,-0.024 -1.833,0.352 0,0" style="fill:#000000;fill-opacity:1;fill-rule:nonzero;stroke:none" id="path470"/></g></g></g></g><g id="g478" transform="translate(179.2604,267.7282)"><path d="m 0,0 c -1.048,-3.806 -5.852,-11.189 -10.239,-19.096 -4.797,-8.626 -9.085,-17.867 -7.407,-23.735 0.417,-1.474 0.605,-2.554 0.605,-3.331 0.017,-2.554 -1.923,-1.76 -3.879,-0.312 -1.997,1.482 -4.019,3.643 -4.019,3.643 l 0.147,11.377 c 0,0 -6.45,5.926 -1.154,18.89 0.336,0.818 0.72,1.67 1.154,2.554 7.293,14.732 18.228,30.194 7.874,34.572 C -2.619,25.438 2.193,7.963 0,0" style="fill:#20c3c5;fill-opacity:1;fill-rule:nonzero;stroke:none" id="path480"/></g><g id="g482"><g id="g484"/><g id="g496"><g clip-path="url(#clipPath488)" opacity="0.529999" id="g494"><g transform="translate(162.3424,292.2897)" id="g492"><path d="m 0,0 c 2.678,-0.583 5.012,-2.378 6.492,-4.668 0.399,-0.56 0.682,-1.186 0.999,-1.793 0.238,-0.641 0.543,-1.262 0.705,-1.929 0.191,-0.658 0.378,-1.318 0.475,-1.997 l 0.178,-1.012 0.064,-1.034 c -0.057,-2.769 -0.937,-5.412 -1.85,-7.978 -0.952,-2.565 -2.052,-5.068 -3.189,-7.55 -2.277,-4.964 -4.732,-9.842 -6.898,-14.838 -1.073,-2.499 -2.101,-5.023 -2.862,-7.618 -0.387,-1.295 -0.68,-2.612 -0.85,-3.934 -0.166,-1.315 -0.155,-2.67 0.265,-3.863 l 0.004,-0.012 c 0.075,-0.212 -0.037,-0.446 -0.25,-0.521 -0.213,-0.075 -0.447,0.037 -0.522,0.25 0,10e-4 -0.002,0.005 -0.002,0.006 -0.47,1.402 -0.444,2.858 -0.257,4.234 0.195,1.381 0.515,2.732 0.926,4.045 0.809,2.635 1.877,5.161 2.986,7.661 2.239,4.99 4.754,9.836 7.089,14.763 1.165,2.463 2.293,4.945 3.273,7.485 0.941,2.539 1.843,5.157 1.932,7.871 l -0.049,1.009 -0.164,1.004 C 8.407,-9.743 8.23,-9.088 8.049,-8.433 7.897,-7.77 7.603,-7.152 7.374,-6.513 7.068,-5.908 6.795,-5.283 6.406,-4.724 4.967,-2.435 2.67,-0.616 0,0" style="fill:#000000;fill-opacity:1;fill-rule:nonzero;stroke:none" id="path490"/></g></g></g></g><g id="g498" transform="translate(172.6959,244.737)"><path d="m 0,0 c -4.371,-11.524 0,-20.266 -6.564,-21.51 -3.004,-0.573 -4.33,1.654 -4.878,4.24 -0.655,3.061 -0.221,6.622 -0.221,6.622 0,0 1.113,2.848 3.454,5.614 C -6.302,-2.783 -3.593,-0.59 0,0" style="fill:#169799;fill-opacity:1;fill-rule:nonzero;stroke:none" id="path500"/></g><g id="g502" transform="translate(157.4562,230.4548)"><path d="m 0,0 c -0.025,-2.685 -0.63,-4.96 -1.875,-6.155 -0.122,-0.123 -0.245,-0.23 -0.36,-0.32 -3.102,-2.512 -5.082,2.087 -5.082,2.087 0,0 -8.25,4.069 -12.343,12.326 -3.135,6.344 -3.831,15.167 3.544,26.511 1.08,-8.078 5.508,-13.578 9.895,-18.8 v -0.008 c 0.549,-0.655 1.089,-1.293 1.629,-1.94 C -1.555,10.059 0.041,4.46 0,0" style="fill:#b8e3e2;fill-opacity:1;fill-rule:nonzero;stroke:none" id="path504"/></g><g id="g506"><g id="g508"/><g id="g520"><g clip-path="url(#clipPath512)" opacity="0.529999" id="g518"><g transform="translate(141.3375,264.903)" id="g516"><path d="m 0,0 c -0.714,-3.474 -0.886,-7.054 -0.557,-10.572 0.372,-3.507 1.337,-6.992 3.242,-9.961 1.833,-3.019 4.379,-5.504 6.688,-8.218 1.148,-1.361 2.252,-2.806 3.025,-4.465 0.783,-1.649 1.141,-3.527 0.992,-5.366 -0.018,-0.226 -0.216,-0.394 -0.441,-0.375 -0.225,0.018 -0.393,0.216 -0.375,0.44 0,0.002 0,0.007 10e-4,0.009 0.167,1.701 -0.123,3.426 -0.829,4.997 -0.697,1.578 -1.738,3.004 -2.846,4.368 -2.227,2.725 -4.759,5.293 -6.566,8.398 -1.881,3.062 -2.79,6.622 -3.094,10.154 C -1.023,-7.044 -0.781,-3.461 0,0" style="fill:#000000;fill-opacity:1;fill-rule:nonzero;stroke:none" id="path514"/></g></g></g></g><g id="g522"><g id="g524"/><g id="g536"><g clip-path="url(#clipPath528)" opacity="0.25" id="g534"><g transform="translate(172.6989,244.737)" id="g532"><path d="m 0,0 c -1.253,-1.45 -2.419,-2.973 -3.534,-4.528 -1.106,-1.561 -2.165,-3.156 -3.114,-4.813 -1.894,-3.299 -3.504,-6.836 -4.033,-10.555 l -0.002,-0.014 c -0.031,-0.224 -0.239,-0.38 -0.463,-0.348 -0.224,0.032 -0.379,0.239 -0.347,0.463 0,0.005 10e-4,0.011 0.002,0.015 0.698,3.883 2.469,7.39 4.492,10.65 1.016,1.635 2.137,3.198 3.301,4.724 C -2.525,-2.887 -1.304,-1.405 0,0" style="fill:#000000;fill-opacity:1;fill-rule:nonzero;stroke:none" id="path530"/></g></g></g></g><g id="g538" transform="translate(170.0441,224.61)"><path d="m 0,0 -2.799,-17.187 c -0.139,-0.721 -0.769,-1.245 -1.506,-1.245 h -17.442 c -0.736,0 -1.367,0.524 -1.506,1.245 L -25.528,-3.232 -26.052,0 c -0.172,0.941 0.548,1.81 1.506,1.81 h 23.04 C -0.548,1.81 0.172,0.941 0,0" style="fill:#b8e3e2;fill-opacity:1;fill-rule:nonzero;stroke:none" id="path540"/></g><g id="g542" transform="translate(172.6959,221.1071)"><path d="m 0,0 h -31.356 l 0.827,4.682 c 0.18,0.982 1.031,1.703 2.03,1.703 h 25.651 c 0.99,0 1.849,-0.721 2.021,-1.703 z" style="fill:#86bfbc;fill-opacity:1;fill-rule:nonzero;stroke:none" id="path544"/></g><g id="g546"><g id="g548"/><g id="g560"><g clip-path="url(#clipPath552)" opacity="0.25" id="g558"><g transform="translate(161.0329,234.0886)" id="g556"><path d="m 0,0 c 0,0 -0.434,-3.544 0.213,-6.597 h -4.101 c 0.197,0.892 0.295,1.899 0.311,2.963 0.041,4.46 -1.555,10.059 -4.591,13.701 -0.54,0.647 -1.081,1.286 -1.629,1.94 v 0.009 c 0.065,2.512 0.638,5.524 2.079,9.06 C -7.481,16.942 -6.466,9.756 -2.341,8.995 0.794,8.422 4.878,11.532 7.988,14.544 6.343,11.59 4.764,8.562 3.454,5.614 1.113,2.849 0,0 0,0" style="fill:#000000;fill-opacity:1;fill-rule:nonzero;stroke:none" id="path554"/></g></g></g></g><g id="g562"><g id="g564"/><g id="g576"><g clip-path="url(#clipPath568)" opacity="0.25" id="g574"><g transform="translate(158.7081,206.1784)" id="g572"><path d="m 0,0 h -10.411 c -0.736,0 -1.367,0.523 -1.506,1.244 l -2.234,13.685 h 8.995 C -5.377,13.014 -5.647,9.437 -4.968,6.662 -4.436,4.461 -2.504,1.629 0,0" style="fill:#000000;fill-opacity:1;fill-rule:nonzero;stroke:none" id="path570"/></g></g></g></g><g id="g578" transform="translate(237.5812,347.7551)"><path d="m 0,0 h -44.606 c -2.203,0 -3.989,1.786 -3.989,3.988 v 33.174 c 0,2.202 1.786,3.988 3.989,3.988 H 0 c 2.203,0 3.988,-1.786 3.988,-3.988 V 3.988 C 3.988,1.786 2.203,0 0,0" style="fill:#383873;fill-opacity:1;fill-rule:nonzero;stroke:none" id="path580"/></g><g id="g582" transform="translate(201.2291,374.3498)"><path d="m 0,0 v -4.429 c 0,-0.354 0.288,-0.642 0.643,-0.642 h 2.451 c 0.355,0 0.642,0.288 0.642,0.642 V 0 c 0,0.355 0.288,0.643 0.643,0.643 H 4.616 C 4.97,0.643 5.258,0.355 5.258,0 v -12.04 c 0,-0.354 -0.288,-0.642 -0.642,-0.642 H 4.379 c -0.355,0 -0.643,0.288 -0.643,0.642 v 4.943 c 0,0.355 -0.287,0.642 -0.642,0.642 H 0.643 C 0.288,-6.455 0,-6.742 0,-7.097 v -4.943 c 0,-0.354 -0.288,-0.642 -0.643,-0.642 H -0.88 c -0.355,0 -0.642,0.288 -0.642,0.642 V 0 c 0,0.355 0.287,0.643 0.642,0.643 h 0.237 C -0.288,0.643 0,0.355 0,0" style="fill:#ffffff;fill-opacity:1;fill-rule:nonzero;stroke:none" id="path584"/></g><g id="g586" transform="translate(209.776,373.6281)"><path d="m 0,0 h -1.147 c -0.354,0 -0.642,0.288 -0.642,0.642 v 0.08 c 0,0.355 0.288,0.642 0.642,0.642 h 5.101 c 0.355,0 0.642,-0.287 0.642,-0.642 V 0.642 C 4.596,0.288 4.309,0 3.954,0 H 2.807 C 2.452,0 2.165,-0.288 2.165,-0.643 v -10.675 c 0,-0.354 -0.288,-0.642 -0.643,-0.642 H 1.285 c -0.355,0 -0.643,0.288 -0.643,0.642 V -0.643 C 0.642,-0.288 0.354,0 0,0" style="fill:#ffffff;fill-opacity:1;fill-rule:nonzero;stroke:none" id="path588"/></g><g id="g590" transform="translate(223.8395,367.4011)"><path d="M 0,0 C -0.099,1.76 -0.198,3.716 -0.138,5.219 H -0.217 C -0.515,3.736 -0.87,2.155 -1.285,0.593 l -1.641,-6.247 h -0.969 l -1.562,5.99 c -0.435,1.7 -0.829,3.341 -1.086,4.883 h -0.06 c 0,-1.562 -0.08,-3.42 -0.158,-5.318 L -6.99,-5.12 c -0.015,-0.343 -0.298,-0.613 -0.642,-0.613 h -0.069 c -0.369,0 -0.663,0.311 -0.641,0.68 l 0.715,12.04 c 0.02,0.339 0.301,0.604 0.641,0.604 h 0.537 c 0.293,0 0.549,-0.198 0.622,-0.482 l 1.439,-5.607 c 0.454,-1.759 0.79,-3.064 1.067,-4.586 h 0.059 c 0.257,1.522 0.554,2.788 0.989,4.586 l 1.382,5.601 c 0.071,0.287 0.328,0.488 0.623,0.488 h 0.591 c 0.34,0 0.621,-0.265 0.641,-0.605 L 1.66,-5.054 C 1.682,-5.422 1.388,-5.733 1.019,-5.733 H 0.888 c -0.342,0 -0.625,0.269 -0.641,0.611 z" style="fill:#ffffff;fill-opacity:1;fill-rule:nonzero;stroke:none" id="path592"/></g><g id="g594" transform="translate(228.2536,374.9924)"><path d="M 0,0 H 0.238 C 0.593,0 0.88,-0.288 0.88,-0.643 v -10.754 c 0,-0.355 0.288,-0.643 0.642,-0.643 h 2.472 c 0.354,0 0.642,-0.287 0.642,-0.642 0,-0.355 -0.288,-0.643 -0.642,-0.643 H 0 c -0.354,0 -0.642,0.288 -0.642,0.643 V -0.643 C -0.642,-0.288 -0.354,0 0,0" style="fill:#ffffff;fill-opacity:1;fill-rule:nonzero;stroke:none" id="path596"/></g><g id="g598" transform="translate(257.9156,385.3796)"><path d="m 0,0 c 1.669,0 2.063,1.123 2.063,2.124 0,0.88 -0.09,1.73 -0.181,2.58 -0.091,0.91 -0.183,1.73 -0.183,2.67 0,2.731 1.67,3.884 3.824,3.884 H 5.888 V 9.681 H 5.432 C 4.157,9.681 3.642,8.77 3.642,7.405 3.642,6.585 3.733,5.827 3.824,5.098 3.885,4.309 3.976,3.581 3.976,2.853 4.006,0.485 3.187,-0.334 1.882,-0.698 v -0.061 c 1.305,-0.394 2.124,-1.214 2.094,-3.611 0,-0.759 -0.091,-1.517 -0.152,-2.276 -0.091,-0.759 -0.182,-1.518 -0.182,-2.337 0,-1.366 0.455,-2.306 1.821,-2.306 h 0.425 v -1.578 H 5.493 c -2.003,0 -3.794,1.001 -3.794,3.884 0,0.911 0.092,1.821 0.183,2.701 0.091,0.88 0.181,1.76 0.181,2.61 0,0.971 -0.394,2.154 -2.063,2.154 z" style="fill:#383873;fill-opacity:1;fill-rule:nonzero;stroke:none" id="path600"/></g><g id="g602" transform="translate(288.8531,383.862)"><path d="m 0,0 c -1.669,0 -2.063,-1.184 -2.063,-2.154 0,-0.85 0.09,-1.73 0.181,-2.61 0.091,-0.88 0.183,-1.791 0.183,-2.701 0,-2.883 -1.791,-3.885 -3.794,-3.885 h -0.395 v 1.579 h 0.425 c 1.366,0.151 1.821,0.94 1.821,2.306 0,0.819 -0.091,1.578 -0.152,2.337 -0.091,0.758 -0.182,1.517 -0.182,2.275 -0.03,2.398 0.788,3.217 2.094,3.612 v 0.06 c -1.306,0.365 -2.124,1.184 -2.094,3.551 0,0.729 0.091,1.457 0.182,2.246 0.061,0.728 0.152,1.487 0.152,2.306 0,1.366 -0.516,2.124 -1.791,2.276 h -0.455 v 1.578 h 0.365 c 2.154,0 3.824,-1.153 3.824,-3.884 0,-0.941 -0.092,-1.76 -0.183,-2.671 -0.091,-0.849 -0.181,-1.7 -0.181,-2.579 0,-1.001 0.394,-2.124 2.063,-2.124 z" style="fill:#383873;fill-opacity:1;fill-rule:nonzero;stroke:none" id="path604"/></g><g id="g606" transform="translate(278.4401,381.6564)"><path d="M 0,0 V 5.838 L -5.056,8.756 -10.111,5.838 V 0 l 5.055,-2.919 z" style="fill:#ff6224;fill-opacity:1;fill-rule:nonzero;stroke:none" id="path608"/></g><g id="g610" transform="translate(316.4752,352.5695)"><path d="m 0,0 c -4.751,2.366 -10.467,1.432 -14.223,-2.324 -4.635,-4.636 -4.79,-12.067 -0.489,-16.905 l -1.853,0.22 c -0.224,0.026 -0.428,-0.134 -0.455,-0.359 -0.026,-0.224 0.134,-0.427 0.358,-0.454 l 2.823,-0.336 c 0.112,-0.013 0.219,0.02 0.302,0.085 0.082,0.065 0.14,0.161 0.153,0.273 l 0.324,2.731 c 0.028,0.225 -0.132,0.428 -0.357,0.455 -0.225,0.027 -0.429,-0.134 -0.455,-0.358 l -0.207,-1.739 c -4.037,4.517 -3.901,11.472 0.435,15.809 3.507,3.506 8.844,4.379 13.28,2.17 0.202,-0.101 0.448,-0.018 0.549,0.184 C 0.285,-0.346 0.203,-0.101 0,0" style="fill:#ff6224;fill-opacity:1;fill-rule:nonzero;stroke:none" id="path612"/></g><g id="g614" transform="translate(305.8512,329.9216)"><path d="m 0,0 c 4.751,-2.366 10.467,-1.432 14.223,2.324 4.635,4.636 4.79,12.067 0.489,16.906 l 1.853,-0.22 c 0.225,-0.027 0.428,0.133 0.455,0.358 0.027,0.224 -0.133,0.427 -0.358,0.454 l -2.823,0.336 C 13.727,20.171 13.62,20.138 13.537,20.073 13.455,20.008 13.397,19.912 13.385,19.8 L 13.06,17.069 c -0.027,-0.225 0.133,-0.428 0.357,-0.455 0.225,-0.027 0.429,0.134 0.455,0.358 l 0.207,1.739 C 18.117,14.194 17.98,7.239 13.644,2.902 10.138,-0.604 4.801,-1.477 0.364,0.732 0.162,0.833 -0.083,0.75 -0.185,0.548 -0.285,0.346 -0.202,0.101 0,0" style="fill:#ff6224;fill-opacity:1;fill-rule:nonzero;stroke:none" id="path616"/></g><g id="g618" transform="translate(415.3112,306.9465)"><path d="m 0,0 h -74.073 c -1.35,0 -2.445,1.095 -2.445,2.445 0,1.35 1.095,2.445 2.445,2.445 H 0 C 1.351,4.89 2.445,3.795 2.445,2.445 2.445,1.095 1.351,0 0,0" style="fill:#ff6224;fill-opacity:1;fill-rule:nonzero;stroke:none" id="path620"/></g><g id="g622" transform="translate(388.861,296.32)"><path d="m 0,0 h -47.623 c -1.35,0 -2.444,1.094 -2.444,2.444 0,1.351 1.094,2.445 2.444,2.445 L 0,4.889 C 1.351,4.889 2.444,3.795 2.444,2.444 2.444,1.094 1.351,0 0,0" style="fill:#20c3c5;fill-opacity:1;fill-rule:nonzero;stroke:none" id="path624"/></g><g id="g626" transform="translate(388.861,284.9103)"><path d="m 0,0 h -47.623 c -1.35,0 -2.444,1.094 -2.444,2.444 0,1.35 1.094,2.445 2.444,2.445 L 0,4.889 C 1.351,4.889 2.444,3.794 2.444,2.444 2.444,1.094 1.351,0 0,0" style="fill:#20c3c5;fill-opacity:1;fill-rule:nonzero;stroke:none" id="path628"/></g><g id="g630" transform="translate(152.6666,347.5666)"><path d="m 0,0 h -38.477 c -1.35,0 -2.444,1.095 -2.444,2.445 0,1.35 1.094,2.445 2.444,2.445 H 0 C 1.35,4.89 2.445,3.795 2.445,2.445 2.445,1.095 1.35,0 0,0" style="fill:#20c3c5;fill-opacity:1;fill-rule:nonzero;stroke:none" id="path632"/></g><g id="g634" transform="translate(138.1403,336.9396)"><path d="m 0,0 h -23.95 c -1.35,0 -2.445,1.095 -2.445,2.445 0,1.35 1.095,2.445 2.445,2.445 H 0 C 1.35,4.89 2.444,3.795 2.444,2.445 2.444,1.095 1.35,0 0,0" style="fill:#ff6224;fill-opacity:1;fill-rule:nonzero;stroke:none" id="path636"/></g><g id="g638" transform="translate(138.1403,325.53)"><path d="m 0,0 h -23.95 c -1.35,0 -2.445,1.095 -2.445,2.445 0,1.35 1.095,2.445 2.445,2.445 H 0 C 1.35,4.89 2.444,3.795 2.444,2.445 2.444,1.095 1.35,0 0,0" style="fill:#ff6224;fill-opacity:1;fill-rule:nonzero;stroke:none" id="path640"/></g><g id="g642" transform="translate(381.9401,170.3454)"><path d="m 0,0 c -2.398,-6.957 -5.263,-13.03 -8.259,-18.514 -10.353,-18.915 -22.377,-30.947 -22.827,-48.585 0,0 -3.732,16.616 -0.736,35.546 C -30.145,-20.92 -26.347,-9.56 -18.579,0 3.036,26.584 -0.164,50.762 -0.164,50.762 -0.164,50.762 10.673,30.931 0,0" style="fill:#169799;fill-opacity:1;fill-rule:nonzero;stroke:none" id="path644"/></g><g id="g646"><g id="g648"/><g id="g660"><g clip-path="url(#clipPath652)" opacity="0.25" id="g658"><g transform="translate(356.4713,123.9352)" id="g656"><path d="m 0,0 c -0.317,2.205 -0.231,4.352 -0.028,6.506 0.213,2.147 0.598,4.275 1.151,6.355 1.072,4.172 2.665,8.191 4.6,12.021 0.931,1.935 2.045,3.773 3.132,5.621 l 3.481,5.374 c 2.218,3.612 4.089,7.444 5.664,11.395 1.588,3.947 2.925,7.997 4.047,12.105 1.134,4.106 2.06,8.271 2.79,12.471 0.733,4.197 1.268,8.433 1.534,12.688 0.127,2.127 0.186,4.261 0.094,6.391 -0.053,1.063 -0.119,2.13 -0.293,3.181 -0.176,1.046 -0.37,2.113 -0.867,3.064 0.512,-0.943 0.726,-2.01 0.919,-3.055 0.191,-1.052 0.275,-2.119 0.346,-3.184 0.127,-2.134 0.103,-4.274 0.011,-6.408 -0.185,-4.27 -0.69,-8.522 -1.377,-12.74 C 24.519,67.566 23.635,63.379 22.542,59.244 21.46,55.106 20.162,51.022 18.605,47.032 17.063,43.037 15.219,39.15 13.011,35.463 L 9.562,30.069 C 8.49,28.238 7.394,26.417 6.479,24.502 4.577,20.713 3.018,16.746 1.975,12.646 1.44,10.599 1.066,8.514 0.834,6.417 0.616,4.333 0.529,2.178 0.805,0.151 L 0.81,0.113 C 0.84,-0.11 0.684,-0.316 0.46,-0.347 0.237,-0.377 0.032,-0.222 0,0" style="fill:#000000;fill-opacity:1;fill-rule:nonzero;stroke:none" id="path654"/></g></g></g></g><g id="g662"><g id="g664"/><g id="g676"><g clip-path="url(#clipPath668)" opacity="0.25" id="g674"><g transform="translate(373.6813,151.8317)" id="g672"><path d="m 0,0 c -10.354,-18.915 -22.377,-30.947 -22.827,-48.585 0,0 -3.733,16.615 -0.736,35.546 C -16.853,-10.297 -7.415,-5.828 0,0" style="fill:#000000;fill-opacity:1;fill-rule:nonzero;stroke:none" id="path670"/></g></g></g></g><g id="g678" transform="translate(356.8561,84.5749)"><path d="M 0,0 C 0,0 -7.561,12.927 10.333,28.878 28.226,44.83 42.229,65.927 39.506,82.996 22.392,63.111 -23.119,34.916 -10.283,0.002 Z" style="fill:#20c3c5;fill-opacity:1;fill-rule:nonzero;stroke:none" id="path680"/></g><g id="g682"><g id="g684"/><g id="g696"><g clip-path="url(#clipPath688)" opacity="0.25" id="g694"><g transform="translate(396.3619,167.571)" id="g692"><path d="m 0,0 c -1.708,-3.767 -3.997,-7.244 -6.461,-10.558 -2.49,-3.301 -5.229,-6.413 -8.145,-9.346 -2.889,-2.965 -6.081,-5.618 -9.244,-8.269 -3.144,-2.664 -5.993,-5.673 -8.534,-8.914 -5.076,-6.481 -9.047,-13.861 -11.438,-21.732 -1.168,-3.936 -1.971,-8 -2.084,-12.096 -0.12,-4.078 0.402,-8.229 2.035,-11.954 0.092,-0.206 -0.002,-0.448 -0.209,-0.539 -0.206,-0.092 -0.448,0.002 -0.539,0.209 l -0.002,0.004 c -1.665,3.887 -2.156,8.15 -2.001,12.304 0.15,4.174 1,8.283 2.213,12.251 2.482,7.934 6.544,15.327 11.705,21.808 2.583,3.239 5.474,6.241 8.656,8.895 3.193,2.629 6.387,5.241 9.298,8.177 2.934,2.904 5.693,5.988 8.208,9.264 C -4.054,-7.206 -1.739,-3.752 0,0" style="fill:#000000;fill-opacity:1;fill-rule:nonzero;stroke:none" id="path690"/></g></g></g></g><g id="g698" transform="translate(100.0568,178.2214)"><path d="M 0,0 C 0,0 -9.335,8.508 -14.295,29.781 14.295,5.543 21.297,-16.044 21.297,-16.044 Z" style="fill:#169799;fill-opacity:1;fill-rule:nonzero;stroke:none" id="path700"/></g><g id="g702"><g id="g704"/><g id="g716"><g clip-path="url(#clipPath708)" opacity="0.25" id="g714"><g transform="translate(85.7619,208.0026)" id="g712"><path d="m 0,0 c 3.977,-5.691 7.867,-11.444 11.652,-17.269 1.891,-2.912 3.744,-5.851 5.542,-8.827 1.789,-2.981 3.54,-5.987 4.993,-9.187 0.094,-0.206 0.003,-0.448 -0.203,-0.542 -0.206,-0.094 -0.448,-0.003 -0.542,0.203 -0.001,0.002 -0.002,0.004 -0.002,0.006 l -0.006,0.013 c -1.357,3.151 -3.045,6.194 -4.769,9.197 -1.735,3.001 -3.526,5.971 -5.358,8.919 C 7.64,-11.596 3.864,-5.769 0,0" style="fill:#000000;fill-opacity:1;fill-rule:nonzero;stroke:none" id="path710"/></g></g></g></g><g id="g718" transform="translate(120.7716,166.2614)"><path d="M 0,0 C -5.14,4.633 -12.752,9.224 -19.995,14.168 -29.629,20.74 -38.607,27.959 -40.269,36.774 -44.05,4.96 -7.047,-9.363 -7.047,-9.363 L -6.973,-9.47 6.466,-29.072 c 0,0 5.492,18.276 -6.466,29.072" style="fill:#20c3c5;fill-opacity:1;fill-rule:nonzero;stroke:none" id="path720"/></g><g id="g722"><g id="g724"/><g id="g736"><g clip-path="url(#clipPath728)" opacity="0.25" id="g734"><g transform="translate(80.5026,203.0358)" id="g732"><path d="m 0,0 c 0.023,-3.546 1.053,-7.016 2.545,-10.201 1.556,-3.17 3.668,-6.054 6.184,-8.522 2.514,-2.478 5.415,-4.515 8.376,-6.436 2.96,-1.929 5.969,-3.791 8.896,-5.786 5.836,-3.965 11.429,-8.593 15.341,-14.6 3.971,-5.959 5.802,-13.184 5.803,-20.303 10e-4,-0.225 -0.182,-0.41 -0.408,-0.411 -0.226,-0.002 -0.41,0.181 -0.411,0.406 v 0.006 c 0.064,6.994 -1.656,14.074 -5.499,19.97 -3.787,5.941 -9.278,10.587 -15.058,14.595 -2.898,2.016 -5.887,3.906 -8.833,5.867 -2.946,1.952 -5.846,4.029 -8.352,6.547 -2.506,2.508 -4.601,5.428 -6.131,8.623 C 0.985,-7.033 -0.011,-3.547 0,0" style="fill:#000000;fill-opacity:1;fill-rule:nonzero;stroke:none" id="path730"/></g></g></g></g><g id="g738" transform="translate(384.2057,70.3786)"><path d="m 0,0 h -248.609 c -3.921,0 -7.1,3.178 -7.1,7.099 0,3.921 3.179,7.099 7.1,7.099 H 0 c 3.921,0 7.1,-3.178 7.1,-7.099 C 7.1,3.178 3.921,0 0,0" style="fill:#eaf9f8;fill-opacity:1;fill-rule:nonzero;stroke:none" id="path740"/></g></g></g></g></g></svg>