<?xml version="1.0" encoding="UTF-8" standalone="no"?>
<svg
   xmlns:dc="http://purl.org/dc/elements/1.1/"
   xmlns:cc="http://creativecommons.org/ns#"
   xmlns:rdf="http://www.w3.org/1999/02/22-rdf-syntax-ns#"
   xmlns:svg="http://www.w3.org/2000/svg"
   xmlns="http://www.w3.org/2000/svg"
   xmlns:sodipodi="http://sodipodi.sourceforge.net/DTD/sodipodi-0.dtd"
   xmlns:inkscape="http://www.inkscape.org/namespaces/inkscape"
   version="1.1"
   id="svg2"
   xml:space="preserve"
   width="300"
   height="300"
   viewBox="0 0 300 300"
   sodipodi:docname="vecteezy.eps"><metadata
     id="metadata8"><rdf:RDF><cc:Work
         rdf:about=""><dc:format>image/svg+xml</dc:format><dc:type
           rdf:resource="http://purl.org/dc/dcmitype/StillImage" /></cc:Work></rdf:RDF></metadata><defs
     id="defs6" /><sodipodi:namedview
     pagecolor="#ffffff"
     bordercolor="#666666"
     borderopacity="1"
     objecttolerance="10"
     gridtolerance="10"
     guidetolerance="10"
     inkscape:pageopacity="0"
     inkscape:pageshadow="2"
     inkscape:window-width="640"
     inkscape:window-height="480"
     id="namedview4" /><g
     id="g10"
     inkscape:groupmode="layer"
     inkscape:label="ink_ext_XXXXXX"
     transform="matrix(1.3333333,0,0,-1.3333333,0,300)"><g
       id="g12"
       transform="scale(0.1)"><path
         d="m 1147.6,1552.9 c 65.2,51.6 165.2,56.9 232.8,6.9 54.1,-39.9 83.5,-104.6 96.7,-168.9 15.5,-72.5 10.3,-147.1 5.8,-220.4 54.7,-0.1 109.3,0 164,-0.1 0.1,-47.9 -0.1,-95.9 0.3,-143.9 -62.4,-0.9 -124.9,-0.4 -187.3,-0.3 -31,-142.501 -84.8,-290.501 -198.8,-387.802 -75.6,-66.5 -189.5,-76.898 -280.1,-37.097 -63.5,28.5 -104.199,91.301 -122.398,156.5 -42.301,140.199 -16.801,288.099 -34.5,431.299 -5,36.6 -12.801,86.7 -55,97.6 -46.5,8.7 -94.403,2 -141.403,3.7 -0.097,48.2 0.301,96.4 -0.597,144.5 74.898,-1.3 154.898,11.4 224.597,-23.1 53.699,-25.9 86.903,-80.4 102.403,-136.2 39.097,-137.2 14.699,-281.202 31.898,-420.998 4.699,-33.403 10.801,-68.5 30.9,-96.602 23.7,-30.801 66.6,-36.301 102.7,-30.5 39.7,8 69.6,38.5 93.6,69.199 53.3,72.801 82,159.801 105.5,246.001 -75.4,18.5 -148.8,56.5 -196.2,119.4 -85.2,111.9 -90.1,297.3 25.1,390.8 m 81.3,-121.8 c -26.3,-33.2 -23.9,-79.5 -16.6,-118.9 13.3,-64.7 67.2,-113.2 128.1,-133.8 -1.4,79.1 13,164.2 -24.4,237.5 -13.5,33.6 -63.5,42.7 -87.1,15.2"
         style="fill:#ffffff;fill-opacity:1;fill-rule:nonzero;stroke:none"
         id="path14" /><path
         d="m 1211.6,1927.9 c 164.9,9.3 342.8,-24.7 468.6,-138.6 126.3,-112.4 183.3,-280.9 207.2,-443.9 C 1912.5,1148 1913.1,940.102 1837.1,753 1780.5,609.602 1673.4,486.301 1536.6,414.301 1403.1,343.301 1250,316.199 1099.9,317.199 943.602,314.602 787.699,361.398 656.602,446 505.898,543.102 388.898,691.699 331.602,861.699 282.602,1009.7 271,1175.1 328,1322.7 c 78.699,206.4 247.398,367.4 437.801,473 137,74.9 289.599,123.2 445.799,132.2 m -64,-375 c -115.2,-93.5 -110.3,-278.9 -25.1,-390.8 47.4,-62.9 120.8,-100.9 196.2,-119.4 -23.5,-86.2 -52.2,-173.2 -105.5,-246.001 -24,-30.699 -53.9,-61.199 -93.6,-69.199 -36.1,-5.801 -79,-0.301 -102.7,30.5 -20.099,28.102 -26.201,63.199 -30.9,96.602 -17.199,139.796 7.199,283.798 -31.898,420.998 -15.5,55.8 -48.704,110.3 -102.403,136.2 -69.699,34.5 -149.699,21.8 -224.597,23.1 0.898,-48.1 0.5,-96.3 0.597,-144.5 47,-1.7 94.903,5 141.403,-3.7 42.199,-10.9 50,-61 55,-97.6 17.699,-143.2 -7.801,-291.1 34.5,-431.299 18.199,-65.199 58.898,-128 122.398,-156.5 90.6,-39.801 204.5,-29.403 280.1,37.097 114,97.301 167.8,245.301 198.8,387.802 62.4,-0.1 124.9,-0.6 187.3,0.3 -0.4,48 -0.2,96 -0.3,143.9 -54.7,0.1 -109.3,0 -164,0.1 4.5,73.3 9.7,147.9 -5.8,220.4 -13.2,64.3 -42.6,129 -96.7,168.9 -67.6,50 -167.6,44.7 -232.8,-6.9 m 81.3,-121.8 c 23.6,27.5 73.6,18.4 87.1,-15.2 37.4,-73.3 23,-158.4 24.4,-237.5 -60.9,20.6 -114.8,69.1 -128.1,133.8 -7.3,39.4 -9.7,85.7 16.6,118.9"
         style="fill-opacity:1;fill-rule:nonzero;stroke:none" 
         id="path16" /></g></g></svg>
