<!-- <svg height="100%" width="100%" id="svg" viewBox="0 0 1440 500" xmlns="http://www.w3.org/2000/svg" class="transition duration-300 ease-in-out delay-150"><defs><linearGradient id="gradient"><stop offset="5%" stop-color="#ffa000ff"></stop><stop offset="95%" stop-color="#ff2700ff"></stop></linearGradient></defs><path d="M 0,500 C 0,500 0,250 0,250 C 57.40868924889544,270.3781296023564 114.81737849779088,290.7562592047128 176,310 C 237.18262150220912,329.2437407952872 302.13917525773195,347.3530927835052 357,311 C 411.86082474226805,274.6469072164948 456.62592047128123,183.83136966126656 517,172 C 577.3740795287188,160.16863033873344 653.3571428571429,227.32142857142856 721,259 C 788.6428571428571,290.67857142857144 847.9455081001472,286.88291605301913 909,263 C 970.0544918998528,239.11708394698084 1032.8608247422678,195.14690721649484 1086,213 C 1139.1391752577322,230.85309278350516 1182.6111929307808,310.5294550810015 1240,327 C 1297.3888070692192,343.4705449189985 1368.6944035346096,296.73527245949924 1440,250 C 1440,250 1440,500 1440,500 Z" stroke="none" stroke-width="0" fill="url(#gradient)" class="transition-all duration-300 ease-in-out delay-150"></path></svg> -->

 <svg height="100%" width="100%" id="svg" viewBox="0 0 1440 600" xmlns="http://www.w3.org/2000/svg" class="transition duration-300 ease-in-out delay-150"><defs><linearGradient id="gradient"><stop offset="5%" stop-color="#ff9100ff"></stop><stop offset="95%" stop-color="#ff2700ff"></stop></linearGradient></defs><path d="M 0,700 C 0,700 0,350 0,350 C 48.08247626094463,374.6854605993341 96.16495252188926,399.3709211986681 145,422 C 193.83504747811074,444.6290788013319 243.4226661733876,465.2017758046615 298,432 C 352.5773338266124,398.7982241953385 412.1443827845603,311.8219755826859 470,319 C 527.8556172154397,326.1780244173141 583.999802688371,427.5103218645949 633,442 C 682.000197311629,456.4896781354051 723.8564064619558,384.1367369589345 776,332 C 828.1435935380442,279.8632630410655 890.5745714638056,247.942730299667 949,272 C 1007.4254285361944,296.057269700333 1061.8453076828216,376.0923418423974 1119,388 C 1176.1546923171784,399.9076581576026 1236.044197804908,343.6879023307436 1290,326 C 1343.955802195092,308.3120976692564 1391.977901097546,329.1560488346282 1440,350 C 1440,350 1440,700 1440,700 Z" stroke="none" stroke-width="0" fill="url(#gradient)" class="transition-all duration-300 ease-in-out delay-150"></path></svg> 